<svg width="1728" height="644" viewBox="0 0 1728 644" fill="none" xmlns="http://www.w3.org/2000/svg">
<rect x="-55" y="600.508" width="1946" height="45" transform="rotate(-15.3614 -55 600.508)" fill="#52FFD4"/>
<path d="M302.608 535.9L302.908 529L297.088 532.72L295.708 530.26L301.828 527.14L295.708 524.02L297.088 521.56L302.908 525.28L302.608 518.38H305.428L305.068 525.28L310.888 521.56L312.328 524.02L306.148 527.14L312.328 530.26L310.888 532.72L305.068 529L305.428 535.9H302.608Z" fill="#121824"/>
<path d="M627.608 445.9L627.908 439L622.088 442.72L620.708 440.26L626.828 437.14L620.708 434.02L622.088 431.56L627.908 435.28L627.608 428.38H630.428L630.068 435.28L635.888 431.56L637.328 434.02L631.148 437.14L637.328 440.26L635.888 442.72L630.068 439L630.428 445.9H627.608Z" fill="#121824"/>
<path d="M954.608 356.9L954.908 350L949.088 353.72L947.708 351.26L953.828 348.14L947.708 345.02L949.088 342.56L954.908 346.28L954.608 339.38H957.428L957.068 346.28L962.888 342.56L964.328 345.02L958.148 348.14L964.328 351.26L962.888 353.72L957.068 350L957.428 356.9H954.608Z" fill="#121824"/>
<path d="M1288.61 263.9L1288.91 257L1283.09 260.72L1281.71 258.26L1287.83 255.14L1281.71 252.02L1283.09 249.56L1288.91 253.28L1288.61 246.38H1291.43L1291.07 253.28L1296.89 249.56L1298.33 252.02L1292.15 255.14L1298.33 258.26L1296.89 260.72L1291.07 257L1291.43 263.9H1288.61Z" fill="#121824"/>
<path d="M1617.61 172.9L1617.91 166L1612.09 169.72L1610.71 167.26L1616.83 164.14L1610.71 161.02L1612.09 158.56L1617.91 162.28L1617.61 155.38H1620.43L1620.07 162.28L1625.89 158.56L1627.33 161.02L1621.15 164.14L1627.33 167.26L1625.89 169.72L1620.07 166L1620.43 172.9H1617.61Z" fill="#121824"/>
<path d="M29.0945 610.245C21.7877 612.185 15.4593 609.862 13.7961 603.599C12.1329 597.336 16.4747 592.179 23.7814 590.238C29.1745 588.806 33.4403 589.908 35.9115 592.201L32.3889 595.65C30.4794 593.954 28.1128 593.341 24.8363 594.211C20.2551 595.427 17.9001 598.598 18.8703 602.251C19.8482 605.934 23.4583 607.489 28.0396 606.273C31.258 605.418 33.0743 603.725 33.7626 601.525L38.6622 602.676C37.5788 605.726 34.4585 608.82 29.0945 610.245ZM53.892 603.66C46.7592 605.554 40.5468 603.199 38.8836 596.937C37.2204 590.674 41.4462 585.547 48.5789 583.653C55.7117 581.759 61.9241 584.113 63.5873 590.376C65.2505 596.639 61.0247 601.765 53.892 603.66ZM43.9577 595.589C44.9356 599.271 48.4298 600.858 52.8371 599.687C57.2443 598.517 59.4911 595.406 58.5132 591.724C57.543 588.07 54.0411 586.455 49.6339 587.625C45.2266 588.796 42.9875 591.936 43.9577 595.589ZM69.3912 599.171L64.2552 579.831L71.0401 578.03L80.2874 588.89L82.957 574.865L89.7418 573.063L94.8778 592.403L90.0066 593.696L86.3491 579.924L83.4248 595.444L80.8152 596.137L70.5758 584.113L74.2333 597.885L69.3912 599.171ZM99.179 591.261L94.0431 571.921L98.9722 570.612L104.108 589.952L99.179 591.261ZM108.382 588.817L103.246 569.477L108.349 568.122L123.474 577.856L120.063 565.011L125.021 563.694L130.157 583.034L125.373 584.304L109.799 574.286L113.311 587.508L108.382 588.817ZM146.122 579.167C138.815 581.107 132.487 578.783 130.824 572.521C129.161 566.258 133.502 561.1 140.809 559.16C146.202 557.728 150.468 558.83 152.939 561.122L149.399 564.39C147.499 562.846 145.119 562.299 141.872 563.161C137.261 564.386 134.87 567.535 135.84 571.188C136.81 574.842 140.536 576.366 145.32 575.096C147.872 574.418 149.804 573.16 150.875 572.286L150.306 570.14L142.854 572.119L141.868 568.408L154.191 565.135L156.262 572.935C154.349 575.43 151.022 577.865 146.122 579.167ZM178.664 570.525C174.024 571.757 169.329 571.141 166.822 569.883L168.358 565.967C170.703 567.083 174.305 567.554 177.697 566.653C180.916 565.798 182.237 564.578 181.914 563.361C181.513 561.853 179.436 562.094 175.864 562.67C171.072 563.446 165.957 563.935 164.717 559.267C163.739 555.585 166.885 552.235 172.916 550.634C176.772 549.61 180.66 549.757 183.613 551.176L182.083 554.997C179.842 554.04 176.737 553.685 173.547 554.532C170.793 555.264 169.512 556.287 169.805 557.388C170.175 558.78 172.028 558.629 175.921 558.092C180.714 557.44 185.743 556.974 186.928 561.439C187.906 565.121 184.984 568.846 178.664 570.525ZM203.001 564.062C195.868 565.956 189.656 563.601 187.993 557.339C186.329 551.076 190.555 545.949 197.688 544.055C204.821 542.161 211.033 544.515 212.696 550.778C214.36 557.041 210.134 562.167 203.001 564.062ZM193.067 555.991C194.045 559.673 197.539 561.26 201.946 560.089C206.353 558.919 208.6 555.808 207.622 552.126C206.652 548.472 203.15 546.857 198.743 548.027C194.336 549.198 192.097 552.338 193.067 555.991ZM229.901 556.918C222.768 558.812 216.555 556.458 214.892 550.195C213.229 543.932 217.455 538.806 224.588 536.911C231.72 535.017 237.933 537.372 239.596 543.634C241.259 549.897 237.033 555.024 229.901 556.918ZM219.966 548.847C220.944 552.53 224.438 554.116 228.846 552.946C233.253 551.775 235.5 548.664 234.522 544.982C233.552 541.329 230.05 539.713 225.642 540.884C221.235 542.054 218.996 545.194 219.966 548.847ZM245.4 552.429L240.264 533.09L245.367 531.735L260.492 541.469L257.081 528.624L262.039 527.307L267.175 546.647L262.391 547.917L246.818 537.899L250.329 551.12L245.4 552.429Z" fill="#121824"/>
<path d="M355.291 522.18C348.001 524.181 341.653 521.91 339.938 515.661C338.223 509.413 342.522 504.219 349.812 502.218C355.193 500.741 359.468 501.808 361.958 504.08L358.464 507.559C356.541 505.878 354.169 505.284 350.9 506.182C346.329 507.436 344 510.627 345.001 514.272C346.009 517.946 349.632 519.471 354.203 518.217C357.414 517.335 359.217 515.627 359.887 513.421L364.796 514.531C363.738 517.591 360.643 520.711 355.291 522.18ZM380.033 515.389C372.916 517.342 366.685 515.04 364.969 508.791C363.254 502.542 367.437 497.381 374.554 495.427C381.671 493.474 387.902 495.776 389.618 502.025C391.333 508.274 387.15 513.435 380.033 515.389ZM370.032 507.401C371.041 511.075 374.548 512.632 378.945 511.425C383.343 510.218 385.563 507.089 384.555 503.415C383.554 499.77 380.039 498.183 375.642 499.39C371.244 500.597 369.031 503.756 370.032 507.401ZM395.494 510.771L390.198 491.475L396.967 489.617L406.305 500.4L408.858 486.353L415.627 484.495L420.924 503.791L416.064 505.125L412.292 491.384L409.496 506.928L406.893 507.643L396.554 495.704L400.326 509.445L395.494 510.771ZM425.215 502.613L419.919 483.317L424.837 481.967L430.133 501.263L425.215 502.613ZM434.397 500.093L429.101 480.797L434.192 479.399L449.398 489.007L445.88 476.191L450.827 474.833L456.124 494.13L451.35 495.44L435.694 485.551L439.315 498.743L434.397 500.093ZM472.056 490.13C464.766 492.131 458.418 489.86 456.703 483.611C454.988 477.362 459.287 472.169 466.577 470.168C471.958 468.691 476.233 469.757 478.723 472.029L475.211 475.327C473.298 473.798 470.913 473.271 467.673 474.16C463.073 475.423 460.708 478.592 461.708 482.237C462.709 485.882 466.447 487.376 471.221 486.066C473.767 485.367 475.688 484.093 476.752 483.21L476.165 481.069L468.73 483.11L467.713 479.407L480.008 476.032L482.144 483.814C480.251 486.325 476.945 488.788 472.056 490.13ZM504.525 481.217C499.896 482.488 495.196 481.911 492.678 480.674L494.182 476.745C496.536 477.841 500.142 478.283 503.526 477.354C506.738 476.472 508.049 475.241 507.715 474.026C507.302 472.522 505.227 472.781 501.66 473.386C496.875 474.202 491.763 474.734 490.485 470.076C489.476 466.402 492.594 463.027 498.612 461.375C502.459 460.319 506.348 460.433 509.313 461.828L507.815 465.662C505.566 464.723 502.458 464.394 499.276 465.268C496.527 466.022 495.256 467.056 495.557 468.155C495.939 469.544 497.791 469.378 501.679 468.808C506.466 468.116 511.491 467.608 512.714 472.063C513.722 475.737 510.831 479.486 504.525 481.217ZM528.808 474.552C521.691 476.505 515.459 474.203 513.744 467.954C512.029 461.705 516.212 456.544 523.328 454.59C530.445 452.637 536.677 454.939 538.392 461.188C540.107 467.437 535.924 472.599 528.808 474.552ZM518.807 466.564C519.815 470.238 523.322 471.796 527.72 470.589C532.117 469.382 534.338 466.252 533.329 462.578C532.329 458.933 528.814 457.347 524.416 458.554C520.019 459.761 517.806 462.919 518.807 466.564ZM555.647 467.185C548.53 469.138 542.298 466.836 540.583 460.587C538.868 454.338 543.051 449.177 550.168 447.223C557.284 445.27 563.516 447.572 565.231 453.821C566.947 460.07 562.764 465.232 555.647 467.185ZM545.646 459.197C546.654 462.871 550.162 464.429 554.559 463.222C558.956 462.015 561.177 458.885 560.169 455.211C559.168 451.566 555.653 449.98 551.256 451.187C546.858 452.394 544.645 455.552 545.646 459.197ZM571.108 462.568L565.812 443.271L570.903 441.874L586.109 451.482L582.591 438.666L587.538 437.308L592.835 456.604L588.061 457.914L572.405 448.026L576.026 461.218L571.108 462.568Z" fill="#121824"/>
<path d="M680.291 433.18C673.001 435.181 666.653 432.91 664.938 426.661C663.223 420.413 667.522 415.219 674.812 413.218C680.193 411.741 684.468 412.808 686.958 415.08L683.464 418.559C681.541 416.878 679.169 416.284 675.9 417.182C671.329 418.436 669 421.627 670.001 425.272C671.009 428.946 674.632 430.471 679.203 429.217C682.414 428.335 684.217 426.627 684.887 424.421L689.796 425.531C688.738 428.591 685.643 431.711 680.291 433.18ZM705.033 426.389C697.916 428.342 691.685 426.04 689.969 419.791C688.254 413.542 692.437 408.381 699.554 406.427C706.671 404.474 712.902 406.776 714.618 413.025C716.333 419.274 712.15 424.435 705.033 426.389ZM695.032 418.401C696.041 422.075 699.548 423.632 703.945 422.425C708.343 421.218 710.563 418.089 709.555 414.415C708.554 410.77 705.039 409.183 700.642 410.39C696.244 411.597 694.031 414.756 695.032 418.401ZM720.494 421.771L715.198 402.475L721.967 400.617L731.305 411.4L733.858 397.353L740.627 395.495L745.924 414.791L741.064 416.125L737.292 402.384L734.496 417.928L731.893 418.643L721.554 406.704L725.326 420.445L720.494 421.771ZM750.215 413.613L744.919 394.317L749.837 392.967L755.133 412.263L750.215 413.613ZM759.397 411.093L754.101 391.797L759.192 390.399L774.398 400.007L770.88 387.191L775.827 385.833L781.124 405.13L776.35 406.44L760.694 396.551L764.315 409.743L759.397 411.093ZM797.056 401.13C789.766 403.131 783.418 400.86 781.703 394.611C779.988 388.362 784.287 383.169 791.577 381.168C796.958 379.691 801.233 380.757 803.723 383.029L800.211 386.327C798.298 384.798 795.913 384.271 792.673 385.16C788.073 386.423 785.708 389.592 786.708 393.237C787.709 396.882 791.447 398.376 796.221 397.066C798.767 396.367 800.688 395.093 801.752 394.21L801.165 392.069L793.73 394.11L792.713 390.407L805.008 387.032L807.144 394.814C805.251 397.325 801.945 399.788 797.056 401.13ZM829.525 392.217C824.896 393.488 820.196 392.911 817.678 391.674L819.182 387.745C821.536 388.841 825.142 389.283 828.526 388.354C831.738 387.472 833.049 386.241 832.715 385.026C832.302 383.522 830.227 383.781 826.66 384.386C821.875 385.202 816.763 385.734 815.485 381.076C814.476 377.402 817.594 374.027 823.612 372.375C827.459 371.319 831.348 371.433 834.313 372.828L832.815 376.662C830.566 375.723 827.458 375.394 824.276 376.268C821.527 377.022 820.256 378.056 820.557 379.155C820.939 380.544 822.791 380.378 826.679 379.808C831.466 379.116 836.491 378.608 837.714 383.063C838.722 386.737 835.831 390.486 829.525 392.217ZM853.808 385.552C846.691 387.505 840.459 385.203 838.744 378.954C837.029 372.705 841.212 367.544 848.328 365.59C855.445 363.637 861.677 365.939 863.392 372.188C865.107 378.437 860.924 383.599 853.808 385.552ZM843.807 377.564C844.815 381.238 848.322 382.796 852.72 381.589C857.117 380.382 859.338 377.252 858.329 373.578C857.329 369.933 853.814 368.347 849.416 369.554C845.019 370.761 842.806 373.919 843.807 377.564ZM880.647 378.185C873.53 380.138 867.298 377.836 865.583 371.587C863.868 365.338 868.051 360.177 875.168 358.223C882.284 356.27 888.516 358.572 890.231 364.821C891.947 371.07 887.764 376.232 880.647 378.185ZM870.646 370.197C871.654 373.871 875.162 375.429 879.559 374.222C883.956 373.015 886.177 369.885 885.169 366.211C884.168 362.566 880.653 360.98 876.256 362.187C871.858 363.394 869.645 366.552 870.646 370.197ZM896.108 373.568L890.812 354.271L895.903 352.874L911.109 362.482L907.591 349.666L912.538 348.308L917.835 367.604L913.061 368.914L897.405 359.026L901.026 372.218L896.108 373.568Z" fill="#121824"/>
<path d="M1010.29 343.18C1003 345.181 996.653 342.91 994.938 336.661C993.223 330.413 997.522 325.219 1004.81 323.218C1010.19 321.741 1014.47 322.808 1016.96 325.08L1013.46 328.559C1011.54 326.878 1009.17 326.284 1005.9 327.182C1001.33 328.436 999 331.627 1000 335.272C1001.01 338.946 1004.63 340.471 1009.2 339.217C1012.41 338.335 1014.22 336.627 1014.89 334.421L1019.8 335.531C1018.74 338.591 1015.64 341.711 1010.29 343.18ZM1035.03 336.389C1027.92 338.342 1021.68 336.04 1019.97 329.791C1018.25 323.542 1022.44 318.381 1029.55 316.427C1036.67 314.474 1042.9 316.776 1044.62 323.025C1046.33 329.274 1042.15 334.435 1035.03 336.389ZM1025.03 328.401C1026.04 332.075 1029.55 333.632 1033.95 332.425C1038.34 331.218 1040.56 328.089 1039.55 324.415C1038.55 320.77 1035.04 319.183 1030.64 320.39C1026.24 321.597 1024.03 324.756 1025.03 328.401ZM1050.49 331.771L1045.2 312.475L1051.97 310.617L1061.3 321.4L1063.86 307.353L1070.63 305.495L1075.92 324.791L1071.06 326.125L1067.29 312.384L1064.5 327.928L1061.89 328.643L1051.55 316.704L1055.33 330.445L1050.49 331.771ZM1080.22 323.613L1074.92 304.317L1079.84 302.967L1085.13 322.263L1080.22 323.613ZM1089.4 321.093L1084.1 301.797L1089.19 300.399L1104.4 310.007L1100.88 297.191L1105.83 295.833L1111.12 315.13L1106.35 316.44L1090.69 306.551L1094.32 319.743L1089.4 321.093ZM1127.06 311.13C1119.77 313.131 1113.42 310.86 1111.7 304.611C1109.99 298.362 1114.29 293.169 1121.58 291.168C1126.96 289.691 1131.23 290.757 1133.72 293.029L1130.21 296.327C1128.3 294.798 1125.91 294.271 1122.67 295.16C1118.07 296.423 1115.71 299.592 1116.71 303.237C1117.71 306.882 1121.45 308.376 1126.22 307.066C1128.77 306.367 1130.69 305.093 1131.75 304.21L1131.16 302.069L1123.73 304.11L1122.71 300.407L1135.01 297.032L1137.14 304.814C1135.25 307.325 1131.95 309.788 1127.06 311.13ZM1159.52 302.217C1154.9 303.488 1150.2 302.911 1147.68 301.674L1149.18 297.745C1151.54 298.841 1155.14 299.283 1158.53 298.354C1161.74 297.472 1163.05 296.241 1162.72 295.026C1162.3 293.522 1160.23 293.781 1156.66 294.386C1151.87 295.202 1146.76 295.734 1145.48 291.076C1144.48 287.402 1147.59 284.027 1153.61 282.375C1157.46 281.319 1161.35 281.433 1164.31 282.828L1162.81 286.662C1160.57 285.723 1157.46 285.394 1154.28 286.268C1151.53 287.022 1150.26 288.056 1150.56 289.155C1150.94 290.544 1152.79 290.378 1156.68 289.808C1161.47 289.116 1166.49 288.608 1167.71 293.063C1168.72 296.737 1165.83 300.486 1159.52 302.217ZM1183.81 295.552C1176.69 297.505 1170.46 295.203 1168.74 288.954C1167.03 282.705 1171.21 277.544 1178.33 275.59C1185.45 273.637 1191.68 275.939 1193.39 282.188C1195.11 288.437 1190.92 293.599 1183.81 295.552ZM1173.81 287.564C1174.82 291.238 1178.32 292.796 1182.72 291.589C1187.12 290.382 1189.34 287.252 1188.33 283.578C1187.33 279.933 1183.81 278.347 1179.42 279.554C1175.02 280.761 1172.81 283.919 1173.81 287.564ZM1210.65 288.185C1203.53 290.138 1197.3 287.836 1195.58 281.587C1193.87 275.338 1198.05 270.177 1205.17 268.223C1212.28 266.27 1218.52 268.572 1220.23 274.821C1221.95 281.07 1217.76 286.232 1210.65 288.185ZM1200.65 280.197C1201.65 283.871 1205.16 285.429 1209.56 284.222C1213.96 283.015 1216.18 279.885 1215.17 276.211C1214.17 272.566 1210.65 270.98 1206.26 272.187C1201.86 273.394 1199.65 276.552 1200.65 280.197ZM1226.11 283.568L1220.81 264.271L1225.9 262.874L1241.11 272.482L1237.59 259.666L1242.54 258.308L1247.83 277.604L1243.06 278.914L1227.41 269.026L1231.03 282.218L1226.11 283.568Z" fill="#121824"/>
<path d="M1349.29 249.18C1342 251.181 1335.65 248.91 1333.94 242.661C1332.22 236.413 1336.52 231.219 1343.81 229.218C1349.19 227.741 1353.47 228.808 1355.96 231.08L1352.46 234.559C1350.54 232.878 1348.17 232.284 1344.9 233.182C1340.33 234.436 1338 237.627 1339 241.272C1340.01 244.946 1343.63 246.471 1348.2 245.217C1351.41 244.335 1353.22 242.627 1353.89 240.421L1358.8 241.531C1357.74 244.591 1354.64 247.711 1349.29 249.18ZM1374.03 242.389C1366.92 244.342 1360.68 242.04 1358.97 235.791C1357.25 229.542 1361.44 224.381 1368.55 222.427C1375.67 220.474 1381.9 222.776 1383.62 229.025C1385.33 235.274 1381.15 240.435 1374.03 242.389ZM1364.03 234.401C1365.04 238.075 1368.55 239.632 1372.95 238.425C1377.34 237.218 1379.56 234.089 1378.55 230.415C1377.55 226.77 1374.04 225.183 1369.64 226.39C1365.24 227.597 1363.03 230.756 1364.03 234.401ZM1389.49 237.771L1384.2 218.475L1390.97 216.617L1400.3 227.4L1402.86 213.353L1409.63 211.495L1414.92 230.791L1410.06 232.125L1406.29 218.384L1403.5 233.928L1400.89 234.643L1390.55 222.704L1394.33 236.445L1389.49 237.771ZM1419.22 229.613L1413.92 210.317L1418.84 208.967L1424.13 228.263L1419.22 229.613ZM1428.4 227.093L1423.1 207.797L1428.19 206.399L1443.4 216.007L1439.88 203.191L1444.83 201.833L1450.12 221.13L1445.35 222.44L1429.69 212.551L1433.32 225.743L1428.4 227.093ZM1466.06 217.13C1458.77 219.131 1452.42 216.86 1450.7 210.611C1448.99 204.362 1453.29 199.169 1460.58 197.168C1465.96 195.691 1470.23 196.757 1472.72 199.029L1469.21 202.327C1467.3 200.798 1464.91 200.271 1461.67 201.16C1457.07 202.423 1454.71 205.592 1455.71 209.237C1456.71 212.882 1460.45 214.376 1465.22 213.066C1467.77 212.367 1469.69 211.093 1470.75 210.21L1470.16 208.069L1462.73 210.11L1461.71 206.407L1474.01 203.032L1476.14 210.814C1474.25 213.325 1470.95 215.788 1466.06 217.13ZM1498.52 208.217C1493.9 209.488 1489.2 208.911 1486.68 207.674L1488.18 203.745C1490.54 204.841 1494.14 205.283 1497.53 204.354C1500.74 203.472 1502.05 202.241 1501.72 201.026C1501.3 199.522 1499.23 199.781 1495.66 200.386C1490.87 201.202 1485.76 201.734 1484.48 197.076C1483.48 193.402 1486.59 190.027 1492.61 188.375C1496.46 187.319 1500.35 187.433 1503.31 188.828L1501.81 192.662C1499.57 191.723 1496.46 191.394 1493.28 192.268C1490.53 193.022 1489.26 194.056 1489.56 195.155C1489.94 196.544 1491.79 196.378 1495.68 195.808C1500.47 195.116 1505.49 194.608 1506.71 199.063C1507.72 202.737 1504.83 206.486 1498.52 208.217ZM1522.81 201.552C1515.69 203.505 1509.46 201.203 1507.74 194.954C1506.03 188.705 1510.21 183.544 1517.33 181.59C1524.45 179.637 1530.68 181.939 1532.39 188.188C1534.11 194.437 1529.92 199.599 1522.81 201.552ZM1512.81 193.564C1513.82 197.238 1517.32 198.796 1521.72 197.589C1526.12 196.382 1528.34 193.252 1527.33 189.578C1526.33 185.933 1522.81 184.347 1518.42 185.554C1514.02 186.761 1511.81 189.919 1512.81 193.564ZM1549.65 194.185C1542.53 196.138 1536.3 193.836 1534.58 187.587C1532.87 181.338 1537.05 176.177 1544.17 174.223C1551.28 172.27 1557.52 174.572 1559.23 180.821C1560.95 187.07 1556.76 192.232 1549.65 194.185ZM1539.65 186.197C1540.65 189.871 1544.16 191.429 1548.56 190.222C1552.96 189.015 1555.18 185.885 1554.17 182.211C1553.17 178.566 1549.65 176.98 1545.26 178.187C1540.86 179.394 1538.65 182.552 1539.65 186.197ZM1565.11 189.568L1559.81 170.271L1564.9 168.874L1580.11 178.482L1576.59 165.666L1581.54 164.308L1586.83 183.604L1582.06 184.914L1566.41 175.026L1570.03 188.218L1565.11 189.568Z" fill="#121824"/>
<path d="M1667.29 161.18C1660 163.181 1653.65 160.91 1651.94 154.661C1650.22 148.413 1654.52 143.219 1661.81 141.218C1667.19 139.741 1671.47 140.808 1673.96 143.08L1670.46 146.559C1668.54 144.878 1666.17 144.284 1662.9 145.182C1658.33 146.436 1656 149.627 1657 153.272C1658.01 156.946 1661.63 158.471 1666.2 157.217C1669.41 156.335 1671.22 154.627 1671.89 152.421L1676.8 153.531C1675.74 156.591 1672.64 159.711 1667.29 161.18ZM1692.03 154.389C1684.92 156.342 1678.68 154.04 1676.97 147.791C1675.25 141.542 1679.44 136.381 1686.55 134.427C1693.67 132.474 1699.9 134.776 1701.62 141.025C1703.33 147.274 1699.15 152.435 1692.03 154.389ZM1682.03 146.401C1683.04 150.075 1686.55 151.632 1690.95 150.425C1695.34 149.218 1697.56 146.089 1696.55 142.415C1695.55 138.77 1692.04 137.183 1687.64 138.39C1683.24 139.597 1681.03 142.756 1682.03 146.401ZM1707.49 149.771L1702.2 130.475L1708.97 128.617L1718.3 139.4L1720.86 125.353L1727.63 123.495L1732.92 142.791L1728.06 144.125L1724.29 130.384L1721.5 145.928L1718.89 146.643L1708.55 134.704L1712.33 148.445L1707.49 149.771ZM1737.22 141.613L1731.92 122.317L1736.84 120.967L1742.13 140.263L1737.22 141.613ZM1746.4 139.093L1741.1 119.797L1746.19 118.399L1761.4 128.007L1757.88 115.191L1762.83 113.833L1768.12 133.13L1763.35 134.44L1747.69 124.551L1751.32 137.743L1746.4 139.093ZM1784.06 129.13C1776.77 131.131 1770.42 128.86 1768.7 122.611C1766.99 116.362 1771.29 111.169 1778.58 109.168C1783.96 107.691 1788.23 108.757 1790.72 111.029L1787.21 114.327C1785.3 112.798 1782.91 112.271 1779.67 113.16C1775.07 114.423 1772.71 117.592 1773.71 121.237C1774.71 124.882 1778.45 126.376 1783.22 125.066C1785.77 124.367 1787.69 123.093 1788.75 122.21L1788.16 120.069L1780.73 122.11L1779.71 118.407L1792.01 115.032L1794.14 122.814C1792.25 125.325 1788.95 127.788 1784.06 129.13ZM1816.52 120.217C1811.9 121.488 1807.2 120.911 1804.68 119.674L1806.18 115.745C1808.54 116.841 1812.14 117.283 1815.53 116.354C1818.74 115.472 1820.05 114.241 1819.72 113.026C1819.3 111.522 1817.23 111.781 1813.66 112.386C1808.87 113.202 1803.76 113.734 1802.48 109.076C1801.48 105.402 1804.59 102.027 1810.61 100.375C1814.46 99.3187 1818.35 99.4333 1821.31 100.828L1819.81 104.662C1817.57 103.723 1814.46 103.394 1811.28 104.268C1808.53 105.022 1807.26 106.056 1807.56 107.155C1807.94 108.544 1809.79 108.378 1813.68 107.808C1818.47 107.116 1823.49 106.608 1824.71 111.063C1825.72 114.737 1822.83 118.486 1816.52 120.217ZM1840.81 113.552C1833.69 115.505 1827.46 113.203 1825.74 106.954C1824.03 100.705 1828.21 95.5438 1835.33 93.5903C1842.45 91.6369 1848.68 93.9395 1850.39 100.188C1852.11 106.437 1847.92 111.599 1840.81 113.552ZM1830.81 105.564C1831.82 109.238 1835.32 110.796 1839.72 109.589C1844.12 108.382 1846.34 105.252 1845.33 101.578C1844.33 97.9328 1840.81 96.3467 1836.42 97.5538C1832.02 98.7608 1829.81 101.919 1830.81 105.564ZM1867.65 106.185C1860.53 108.138 1854.3 105.836 1852.58 99.587C1850.87 93.3381 1855.05 88.1768 1862.17 86.2233C1869.28 84.2698 1875.52 86.5724 1877.23 92.8213C1878.95 99.0702 1874.76 104.232 1867.65 106.185ZM1857.65 98.1973C1858.65 101.871 1862.16 103.429 1866.56 102.222C1870.96 101.015 1873.18 97.8851 1872.17 94.211C1871.17 90.5658 1867.65 88.9797 1863.26 90.1867C1858.86 91.3937 1856.65 94.5521 1857.65 98.1973ZM1883.11 101.568L1877.81 82.2714L1882.9 80.8738L1898.11 90.4817L1894.59 77.6657L1899.54 76.3078L1904.83 95.6041L1900.06 96.9143L1884.41 87.0257L1888.03 100.218L1883.11 101.568Z" fill="#121824"/>
<rect x="-189.547" width="1946" height="45" transform="rotate(8.24545 -189.547 0)" fill="#BAFE83"/>
<path d="M26.7466 64.1847L29.5388 44.3705L39.9955 45.844C46.9765 46.8278 52.0783 50.1825 51.0485 57.4903C50.0187 64.7981 44.1546 66.6378 37.233 65.6624L26.7466 64.1847ZM32.3786 60.7672L37.7851 61.529C42.7164 62.224 45.365 60.6279 45.9092 56.7661C46.4702 52.7854 44.349 50.6384 39.4475 49.9477L34.0112 49.1816L32.3786 60.7672ZM49.2318 67.3533L61.5895 48.887L67.5605 49.7284L74.3338 70.8906L68.6896 70.0953L67.6476 66.5249L56.8641 65.0053L54.8761 68.1487L49.2318 67.3533ZM59.1313 61.3863L66.4688 62.4203L63.9703 53.7064L59.1313 61.3863ZM76.3251 71.1712L79.1173 51.357L84.3456 52.0938L94.4926 66.945L96.347 53.785L101.427 54.5008L98.6347 74.3151L93.7331 73.6244L83.2841 58.3367L81.3752 71.8829L76.3251 71.1712ZM114.847 76.9632C107.361 75.9083 102.435 71.3059 103.339 64.8893C104.243 58.4727 110.249 55.4108 117.735 56.4658C123.261 57.2444 126.762 59.9191 128.146 62.9924L123.559 64.8C122.46 62.4941 120.519 61.0086 117.162 60.5355C112.468 59.8741 109.065 61.8789 108.538 65.6219C108.006 69.3946 110.727 72.232 115.42 72.8934C118.718 73.3581 121.05 72.5052 122.54 70.7459L126.606 73.7122C124.421 76.1008 120.343 77.7377 114.847 76.9632ZM128.718 78.5543L131.51 58.7401L150.878 61.4695L150.313 65.4799L135.995 63.4621L135.455 67.2943L149.268 69.2408L148.728 73.073L134.915 71.1264L134.333 75.2556L148.651 77.2734L148.086 81.2837L128.718 78.5543Z" fill="#121824"/>
<path d="M193.504 88.6222L196.297 68.808L206.753 70.2815C213.734 71.2653 218.836 74.62 217.806 81.9278C216.776 89.2356 210.912 91.0753 203.991 90.0999L193.504 88.6222ZM199.136 85.2047L204.543 85.9665C209.474 86.6615 212.123 85.0654 212.667 81.2036C213.228 77.2229 211.107 75.0759 206.205 74.3852L200.769 73.6191L199.136 85.2047ZM215.99 91.7908L228.347 73.3245L234.318 74.1659L241.092 95.3281L235.447 94.5328L234.405 90.9624L223.622 89.4428L221.634 92.5862L215.99 91.7908ZM225.889 85.8238L233.227 86.8578L230.728 78.1439L225.889 85.8238ZM243.083 95.6087L245.875 75.7945L251.103 76.5313L261.25 91.3825L263.105 78.2225L268.185 78.9383L265.392 98.7526L260.491 98.0619L250.042 82.7742L248.133 96.3204L243.083 95.6087ZM281.605 101.401C274.119 100.346 269.193 95.7434 270.097 89.3268C271.001 82.9102 277.007 79.8483 284.493 80.9033C290.019 81.6819 293.52 84.3566 294.904 87.4299L290.317 89.2375C289.218 86.9316 287.276 85.4461 283.92 84.973C279.226 84.3116 275.823 86.3164 275.296 90.0594C274.764 93.8321 277.485 96.6695 282.178 97.3309C285.476 97.7956 287.807 96.9427 289.298 95.1834L293.363 98.1497C291.179 100.538 287.1 102.175 281.605 101.401ZM295.475 102.992L298.268 83.1776L317.636 85.907L317.071 89.9174L302.753 87.8996L302.213 91.7318L316.026 93.6783L315.486 97.5105L301.673 95.5639L301.091 99.6931L315.409 101.711L314.844 105.721L295.475 102.992Z" fill="#121824"/>
<path d="M359.575 113.105L362.367 93.2911L372.824 94.7647C379.805 95.7484 384.906 99.1032 383.877 106.411C382.847 113.719 376.983 115.558 370.061 114.583L359.575 113.105ZM365.207 109.688L370.613 110.45C375.545 111.145 378.193 109.549 378.737 105.687C379.298 101.706 377.177 99.5591 372.276 98.8684L366.839 98.1023L365.207 109.688ZM382.06 116.274L394.418 97.8077L400.389 98.6491L407.162 119.811L401.518 119.016L400.476 115.446L389.692 113.926L387.704 117.069L382.06 116.274ZM391.959 110.307L399.297 111.341L396.798 102.627L391.959 110.307ZM409.153 120.092L411.945 100.278L417.174 101.014L427.321 115.866L429.175 102.706L434.255 103.422L431.463 123.236L426.561 122.545L416.112 107.257L414.203 120.804L409.153 120.092ZM447.675 125.884C440.189 124.829 435.263 120.227 436.167 113.81C437.071 107.393 443.077 104.331 450.563 105.386C456.089 106.165 459.59 108.84 460.975 111.913L456.388 113.721C455.289 111.415 453.347 109.929 449.99 109.456C445.296 108.795 441.893 110.8 441.366 114.543C440.834 118.315 443.555 121.153 448.249 121.814C451.546 122.279 453.878 121.426 455.368 119.667L459.434 122.633C457.249 125.021 453.171 126.658 447.675 125.884ZM461.546 127.475L464.338 107.661L483.707 110.39L483.141 114.401L468.823 112.383L468.283 116.215L482.096 118.161L481.556 121.994L467.743 120.047L467.161 124.176L481.479 126.194L480.914 130.204L461.546 127.475Z" fill="#121824"/>
<path d="M531.661 139.569L534.453 119.755L544.91 121.229C551.891 122.213 556.992 125.567 555.963 132.875C554.933 140.183 549.069 142.023 542.147 141.047L531.661 139.569ZM537.293 136.152L542.699 136.914C547.63 137.609 550.279 136.013 550.823 132.151C551.384 128.17 549.263 126.023 544.362 125.332L538.925 124.566L537.293 136.152ZM554.146 142.738L566.504 124.272L572.475 125.113L579.248 146.275L573.604 145.48L572.562 141.91L561.778 140.39L559.79 143.533L554.146 142.738ZM564.045 136.771L571.383 137.805L568.884 129.091L564.045 136.771ZM581.239 146.556L584.031 126.742L589.26 127.479L599.407 142.33L601.261 129.17L606.341 129.886L603.549 149.7L598.647 149.009L588.198 133.722L586.289 147.268L581.239 146.556ZM619.761 152.348C612.275 151.293 607.349 146.691 608.253 140.274C609.157 133.857 615.163 130.796 622.649 131.851C628.175 132.629 631.676 135.304 633.061 138.377L628.473 140.185C627.374 137.879 625.433 136.393 622.076 135.92C617.382 135.259 613.979 137.264 613.452 141.007C612.92 144.779 615.641 147.617 620.334 148.278C623.632 148.743 625.964 147.89 627.454 146.131L631.52 149.097C629.335 151.486 625.257 153.122 619.761 152.348ZM633.632 153.939L636.424 134.125L655.792 136.854L655.227 140.865L640.909 138.847L640.369 142.679L654.182 144.626L653.642 148.458L639.829 146.511L639.247 150.64L653.565 152.658L653 156.668L633.632 153.939Z" fill="#121824"/>
<path d="M698.418 164.007L701.211 144.193L711.667 145.666C718.648 146.65 723.75 150.005 722.72 157.313C721.691 164.62 715.826 166.46 708.905 165.485L698.418 164.007ZM704.05 160.589L709.457 161.351C714.388 162.046 717.037 160.45 717.581 156.588C718.142 152.608 716.021 150.461 711.119 149.77L705.683 149.004L704.05 160.589ZM720.904 167.176L733.261 148.709L739.232 149.551L746.006 170.713L740.361 169.918L739.319 166.347L728.536 164.828L726.548 167.971L720.904 167.176ZM730.803 161.209L738.141 162.243L735.642 153.529L730.803 161.209ZM747.997 170.994L750.789 151.179L756.017 151.916L766.164 166.767L768.019 153.607L773.099 154.323L770.307 174.137L765.405 173.447L754.956 158.159L753.047 171.705L747.997 170.994ZM786.519 176.786C779.033 175.731 774.107 171.128 775.011 164.712C775.915 158.295 781.921 155.233 789.407 156.288C794.933 157.067 798.434 159.741 799.818 162.815L795.231 164.622C794.132 162.316 792.191 160.831 788.834 160.358C784.14 159.696 780.737 161.701 780.21 165.444C779.678 169.217 782.399 172.054 787.092 172.716C790.39 173.18 792.722 172.327 794.212 170.568L798.277 173.535C796.093 175.923 792.014 177.56 786.519 176.786ZM800.389 178.377L803.182 158.562L822.55 161.292L821.985 165.302L807.667 163.284L807.127 167.117L820.94 169.063L820.4 172.895L806.587 170.949L806.005 175.078L820.323 177.096L819.758 181.106L800.389 178.377Z" fill="#121824"/>
<path d="M864.497 188.49L867.289 168.676L877.745 170.149C884.726 171.133 889.828 174.488 888.798 181.795C887.769 189.103 881.905 190.943 874.983 189.968L864.497 188.49ZM870.129 185.072L875.535 185.834C880.466 186.529 883.115 184.933 883.659 181.071C884.22 177.091 882.099 174.944 877.197 174.253L871.761 173.487L870.129 185.072ZM886.982 191.658L899.34 173.192L905.311 174.034L912.084 195.196L906.44 194.4L905.398 190.83L894.614 189.311L892.626 192.454L886.982 191.658ZM896.881 185.691L904.219 186.725L901.72 178.012L896.881 185.691ZM914.075 195.476L916.867 175.662L922.096 176.399L932.243 191.25L934.097 178.09L939.177 178.806L936.385 198.62L931.483 197.93L921.034 182.642L919.125 196.188L914.075 195.476ZM952.597 201.268C945.111 200.213 940.185 195.611 941.089 189.194C941.993 182.778 947.999 179.716 955.485 180.771C961.011 181.55 964.512 184.224 965.896 187.298L961.309 189.105C960.21 186.799 958.269 185.314 954.912 184.841C950.218 184.179 946.815 186.184 946.288 189.927C945.756 193.7 948.477 196.537 953.17 197.199C956.468 197.663 958.8 196.81 960.29 195.051L964.356 198.017C962.171 200.406 958.093 202.043 952.597 201.268ZM966.468 202.86L969.26 183.045L988.628 185.775L988.063 189.785L973.745 187.767L973.205 191.599L987.018 193.546L986.478 197.378L972.665 195.432L972.083 199.561L986.401 201.579L985.836 205.589L966.468 202.86Z" fill="#121824"/>
<path d="M1030.89 211.015L1033.68 191.201L1044.14 192.675C1051.12 193.658 1056.22 197.013 1055.19 204.321C1054.16 211.629 1048.3 213.468 1041.37 212.493L1030.89 211.015ZM1036.52 207.598L1041.93 208.36C1046.86 209.055 1049.51 207.458 1050.05 203.597C1050.61 199.616 1048.49 197.469 1043.59 196.778L1038.15 196.012L1036.52 207.598ZM1053.37 214.184L1065.73 195.718L1071.7 196.559L1078.47 217.721L1072.83 216.926L1071.79 213.355L1061 211.836L1059.02 214.979L1053.37 214.184ZM1063.27 208.217L1070.61 209.251L1068.11 200.537L1063.27 208.217ZM1080.47 218.002L1083.26 198.188L1088.49 198.924L1098.63 213.776L1100.49 200.616L1105.57 201.331L1102.78 221.146L1097.87 220.455L1087.42 205.167L1085.52 218.713L1080.47 218.002ZM1118.99 223.794C1111.5 222.739 1106.58 218.136 1107.48 211.72C1108.38 205.303 1114.39 202.241 1121.88 203.296C1127.4 204.075 1130.9 206.75 1132.29 209.823L1127.7 211.631C1126.6 209.325 1124.66 207.839 1121.3 207.366C1116.61 206.705 1113.21 208.709 1112.68 212.452C1112.15 216.225 1114.87 219.063 1119.56 219.724C1122.86 220.189 1125.19 219.336 1126.68 217.576L1130.75 220.543C1128.56 222.931 1124.48 224.568 1118.99 223.794ZM1132.86 225.385L1135.65 205.571L1155.02 208.3L1154.45 212.31L1140.14 210.293L1139.6 214.125L1153.41 216.071L1152.87 219.904L1139.06 217.957L1138.47 222.086L1152.79 224.104L1152.23 228.114L1132.86 225.385Z" fill="#121824"/>
<path d="M1197.65 235.453L1200.44 215.639L1210.89 217.112C1217.87 218.096 1222.98 221.451 1221.95 228.758C1220.92 236.066 1215.05 237.906 1208.13 236.93L1197.65 235.453ZM1203.28 232.035L1208.68 232.797C1213.61 233.492 1216.26 231.896 1216.81 228.034C1217.37 224.053 1215.25 221.906 1210.35 221.216L1204.91 220.45L1203.28 232.035ZM1220.13 238.621L1232.49 220.155L1238.46 220.997L1245.23 242.159L1239.59 241.363L1238.55 237.793L1227.76 236.273L1225.77 239.417L1220.13 238.621ZM1230.03 232.654L1237.37 233.688L1234.87 224.974L1230.03 232.654ZM1247.22 242.439L1250.02 222.625L1255.24 223.362L1265.39 238.213L1267.25 225.053L1272.33 225.769L1269.53 245.583L1264.63 244.892L1254.18 229.605L1252.27 243.151L1247.22 242.439ZM1285.75 248.231C1278.26 247.176 1273.33 242.574 1274.24 236.157C1275.14 229.741 1281.15 226.679 1288.63 227.734C1294.16 228.512 1297.66 231.187 1299.04 234.26L1294.46 236.068C1293.36 233.762 1291.42 232.277 1288.06 231.804C1283.37 231.142 1279.96 233.147 1279.44 236.89C1278.9 240.663 1281.63 243.5 1286.32 244.162C1289.62 244.626 1291.95 243.773 1293.44 242.014L1297.5 244.98C1295.32 247.369 1291.24 249.006 1285.75 248.231ZM1299.62 249.822L1302.41 230.008L1321.78 232.738L1321.21 236.748L1306.89 234.73L1306.35 238.562L1320.17 240.509L1319.63 244.341L1305.81 242.394L1305.23 246.524L1319.55 248.541L1318.98 252.552L1299.62 249.822Z" fill="#121824"/>
<path d="M1363.72 259.936L1366.51 240.122L1376.96 241.595C1383.95 242.579 1389.05 245.934 1388.02 253.242C1386.99 260.549 1381.12 262.389 1374.2 261.414L1363.72 259.936ZM1369.35 256.518L1374.75 257.28C1379.69 257.975 1382.33 256.379 1382.88 252.517C1383.44 248.537 1381.32 246.39 1376.42 245.699L1370.98 244.933L1369.35 256.518ZM1386.2 263.105L1398.56 244.638L1404.53 245.48L1411.3 266.642L1405.66 265.846L1404.62 262.276L1393.83 260.757L1391.84 263.9L1386.2 263.105ZM1396.1 257.138L1403.44 258.172L1400.94 249.458L1396.1 257.138ZM1413.29 266.922L1416.09 247.108L1421.31 247.845L1431.46 262.696L1433.32 249.536L1438.4 250.252L1435.6 270.066L1430.7 269.376L1420.25 254.088L1418.34 267.634L1413.29 266.922ZM1451.82 272.714C1444.33 271.66 1439.4 267.057 1440.31 260.641C1441.21 254.224 1447.22 251.162 1454.7 252.217C1460.23 252.996 1463.73 255.67 1465.12 258.744L1460.53 260.551C1459.43 258.245 1457.49 256.76 1454.13 256.287C1449.44 255.625 1446.03 257.63 1445.51 261.373C1444.97 265.146 1447.7 267.983 1452.39 268.645C1455.69 269.109 1458.02 268.256 1459.51 266.497L1463.57 269.463C1461.39 271.852 1457.31 273.489 1451.82 272.714ZM1465.69 274.306L1468.48 254.491L1487.85 257.221L1487.28 261.231L1472.96 259.213L1472.42 263.045L1486.24 264.992L1485.7 268.824L1471.88 266.878L1471.3 271.007L1485.62 273.025L1485.05 277.035L1465.69 274.306Z" fill="#121824"/>
<path d="M1535.8 286.4L1538.59 266.586L1549.05 268.059C1556.03 269.043 1561.13 272.398 1560.1 279.706C1559.07 287.013 1553.21 288.853 1546.29 287.878L1535.8 286.4ZM1541.43 282.982L1546.84 283.744C1551.77 284.439 1554.42 282.843 1554.96 278.981C1555.52 275.001 1553.4 272.854 1548.5 272.163L1543.07 271.397L1541.43 282.982ZM1558.29 289.569L1570.64 271.102L1576.62 271.944L1583.39 293.106L1577.74 292.311L1576.7 288.74L1565.92 287.221L1563.93 290.364L1558.29 289.569ZM1568.19 283.602L1575.52 284.636L1573.03 275.922L1568.19 283.602ZM1585.38 293.387L1588.17 273.572L1593.4 274.309L1603.55 289.16L1605.4 276L1610.48 276.716L1607.69 296.53L1602.79 295.84L1592.34 280.552L1590.43 294.098L1585.38 293.387ZM1623.9 299.179C1616.42 298.124 1611.49 293.521 1612.39 287.105C1613.3 280.688 1619.3 277.626 1626.79 278.681C1632.32 279.46 1635.82 282.134 1637.2 285.208L1632.61 287.015C1631.52 284.709 1629.57 283.224 1626.22 282.751C1621.52 282.089 1618.12 284.094 1617.59 287.837C1617.06 291.61 1619.78 294.447 1624.48 295.109C1627.77 295.573 1630.1 294.72 1631.59 292.961L1635.66 295.928C1633.48 298.316 1629.4 299.953 1623.9 299.179ZM1637.77 300.77L1640.56 280.955L1659.93 283.685L1659.37 287.695L1645.05 285.677L1644.51 289.51L1658.32 291.456L1657.78 295.288L1643.97 293.342L1643.39 297.471L1657.71 299.489L1657.14 303.499L1637.77 300.77Z" fill="#121824"/>
<path d="M1702.56 310.838L1705.35 291.023L1715.81 292.497C1722.79 293.481 1727.89 296.835 1726.86 304.143C1725.83 311.451 1719.97 313.291 1713.05 312.315L1702.56 310.838ZM1708.19 307.42L1713.6 308.182C1718.53 308.877 1721.18 307.281 1721.72 303.419C1722.28 299.438 1720.16 297.291 1715.26 296.601L1709.82 295.834L1708.19 307.42ZM1725.04 314.006L1737.4 295.54L1743.37 296.381L1750.15 317.543L1744.5 316.748L1743.46 313.178L1732.68 311.658L1730.69 314.802L1725.04 314.006ZM1734.94 308.039L1742.28 309.073L1739.78 300.359L1734.94 308.039ZM1752.14 317.824L1754.93 298.01L1760.16 298.747L1770.31 313.598L1772.16 300.438L1777.24 301.154L1774.45 320.968L1769.55 320.277L1759.1 304.99L1757.19 318.536L1752.14 317.824ZM1790.66 323.616C1783.17 322.561 1778.25 317.959 1779.15 311.542C1780.06 305.126 1786.06 302.064 1793.55 303.119C1799.07 303.897 1802.57 306.572 1803.96 309.645L1799.37 311.453C1798.27 309.147 1796.33 307.661 1792.97 307.188C1788.28 306.527 1784.88 308.532 1784.35 312.275C1783.82 316.047 1786.54 318.885 1791.23 319.546C1794.53 320.011 1796.86 319.158 1798.35 317.399L1802.42 320.365C1800.23 322.754 1796.16 324.391 1790.66 323.616ZM1804.53 325.207L1807.32 305.393L1826.69 308.122L1826.13 312.133L1811.81 310.115L1811.27 313.947L1825.08 315.894L1824.54 319.726L1810.73 317.779L1810.15 321.908L1824.46 323.926L1823.9 327.937L1804.53 325.207Z" fill="#121824"/>
<path d="M170.608 84.9L170.908 78L165.088 81.72L163.708 79.26L169.828 76.14L163.708 73.02L165.088 70.56L170.908 74.28L170.608 67.38H173.428L173.068 74.28L178.888 70.56L180.328 73.02L174.148 76.14L180.328 79.26L178.888 81.72L173.068 78L173.428 84.9H170.608Z" fill="#121824"/>
<path d="M336.608 109.9L336.908 103L331.088 106.72L329.708 104.26L335.828 101.14L329.708 98.02L331.088 95.56L336.908 99.28L336.608 92.38H339.428L339.068 99.28L344.888 95.56L346.328 98.02L340.148 101.14L346.328 104.26L344.888 106.72L339.068 103L339.428 109.9H336.608Z" fill="#121824"/>
<path d="M504.608 133.9L504.908 127L499.088 130.72L497.708 128.26L503.828 125.14L497.708 122.02L499.088 119.56L504.908 123.28L504.608 116.38H507.428L507.068 123.28L512.888 119.56L514.328 122.02L508.148 125.14L514.328 128.26L512.888 130.72L507.068 127L507.428 133.9H504.608Z" fill="#121824"/>
<path d="M674.608 159.9L674.908 153L669.088 156.72L667.708 154.26L673.828 151.14L667.708 148.02L669.088 145.56L674.908 149.28L674.608 142.38H677.428L677.068 149.28L682.888 145.56L684.328 148.02L678.148 151.14L684.328 154.26L682.888 156.72L677.068 153L677.428 159.9H674.608Z" fill="#121824"/>
<path d="M841.608 183.9L841.908 177L836.088 180.72L834.708 178.26L840.828 175.14L834.708 172.02L836.088 169.56L841.908 173.28L841.608 166.38H844.428L844.068 173.28L849.888 169.56L851.328 172.02L845.148 175.14L851.328 178.26L849.888 180.72L844.068 177L844.428 183.9H841.608Z" fill="#121824"/>
<path d="M1007.61 206.9L1007.91 200L1002.09 203.72L1000.71 201.26L1006.83 198.14L1000.71 195.02L1002.09 192.56L1007.91 196.28L1007.61 189.38H1010.43L1010.07 196.28L1015.89 192.56L1017.33 195.02L1011.15 198.14L1017.33 201.26L1015.89 203.72L1010.07 200L1010.43 206.9H1007.61Z" fill="#121824"/>
<path d="M1174.61 230.9L1174.91 224L1169.09 227.72L1167.71 225.26L1173.83 222.14L1167.71 219.02L1169.09 216.56L1174.91 220.28L1174.61 213.38H1177.43L1177.07 220.28L1182.89 216.56L1184.33 219.02L1178.15 222.14L1184.33 225.26L1182.89 227.72L1177.07 224L1177.43 230.9H1174.61Z" fill="#121824"/>
<path d="M1340.61 255.9L1340.91 249L1335.09 252.72L1333.71 250.26L1339.83 247.14L1333.71 244.02L1335.09 241.56L1340.91 245.28L1340.61 238.38H1343.43L1343.07 245.28L1348.89 241.56L1350.33 244.02L1344.15 247.14L1350.33 250.26L1348.89 252.72L1343.07 249L1343.43 255.9H1340.61Z" fill="#121824"/>
<path d="M1508.61 280.9L1508.91 274L1503.09 277.72L1501.71 275.26L1507.83 272.14L1501.71 269.02L1503.09 266.56L1508.91 270.28L1508.61 263.38H1511.43L1511.07 270.28L1516.89 266.56L1518.33 269.02L1512.15 272.14L1518.33 275.26L1516.89 277.72L1511.07 274L1511.43 280.9H1508.61Z" fill="#121824"/>
<path d="M1679.61 305.9L1679.91 299L1674.09 302.72L1672.71 300.26L1678.83 297.14L1672.71 294.02L1674.09 291.56L1679.91 295.28L1679.61 288.38H1682.43L1682.07 295.28L1687.89 291.56L1689.33 294.02L1683.15 297.14L1689.33 300.26L1687.89 302.72L1682.07 299L1682.43 305.9H1679.61Z" fill="#121824"/>
</svg>
