<svg width="1728" height="565" viewBox="0 0 1728 565" fill="none" xmlns="http://www.w3.org/2000/svg">
<path d="M213 81.5171C213 35.8964 177.082 0 132.821 0C97.081 0 66.8475 24.6524 56.4913 57.9621C46.1264 24.6568 15.8929 0.857891 -19.8471 0.857891C-64.1165 0.857891 -100 35.731 -100 81.3691C-100 104.397 -90.8356 120.667 -76.0864 138.077L56.5653 275L189.065 138.077C203.827 120.667 213 104.528 213 81.5171Z" fill="#52FFD4"/>
<path d="M527 81.5171C527 35.8964 491.082 0 446.821 0C411.081 0 380.848 24.6524 370.491 57.9621C360.126 24.6568 329.893 0.857891 294.153 0.857891C249.884 0.857891 214 35.731 214 81.3691C214 104.397 223.164 120.667 237.914 138.077L370.565 275L503.065 138.077C517.827 120.667 527 104.528 527 81.5171Z" fill="#52FFD4"/>
<path d="M841 81.5171C841 35.8964 805.082 0 760.821 0C725.081 0 694.848 24.6524 684.491 57.9621C674.126 24.6568 643.893 0.857891 608.153 0.857891C563.884 0.857891 528 35.731 528 81.3691C528 104.397 537.164 120.667 551.914 138.077L684.565 275L817.065 138.077C831.827 120.667 841 104.528 841 81.5171Z" fill="#52FFD4"/>
<path d="M1155 81.5171C1155 35.8964 1119.08 0 1074.82 0C1039.08 0 1008.85 24.6524 998.491 57.9621C988.126 24.6568 957.893 0.857891 922.153 0.857891C877.884 0.857891 842 35.731 842 81.3691C842 104.397 851.164 120.667 865.914 138.077L998.565 275L1131.06 138.077C1145.83 120.667 1155 104.528 1155 81.5171Z" fill="#52FFD4"/>
<path d="M1469 81.5171C1469 35.8964 1433.08 0 1388.82 0C1353.08 0 1322.85 24.6524 1312.49 57.9621C1302.13 24.6568 1271.89 0.857891 1236.15 0.857891C1191.88 0.857891 1156 35.731 1156 81.3691C1156 104.397 1165.16 120.667 1179.91 138.077L1312.57 275L1445.06 138.077C1459.83 120.667 1469 104.528 1469 81.5171Z" fill="#52FFD4"/>
<path d="M1783 81.5171C1783 35.8964 1747.08 0 1702.82 0C1667.08 0 1636.85 24.6524 1626.49 57.9621C1616.13 24.6568 1585.89 0.857891 1550.15 0.857891C1505.88 0.857891 1470 35.731 1470 81.3691C1470 104.397 1479.16 120.667 1493.91 138.077L1626.57 275L1759.06 138.077C1773.83 120.667 1783 104.528 1783 81.5171Z" fill="#52FFD4"/>
<mask id="mask0_992_209" style="mask-type:alpha" maskUnits="userSpaceOnUse" x="-100" y="0" width="1883" height="565">
<path d="M213 81.5171C213 35.8964 177.082 0 132.821 0C97.081 0 66.8475 24.6524 56.4913 57.9621C46.1264 24.6568 15.8929 0.857891 -19.8471 0.857891C-64.1165 0.857891 -100 35.731 -100 81.3691C-100 104.397 -90.8356 120.667 -76.0864 138.077L56.5653 275L189.065 138.077C203.827 120.667 213 104.528 213 81.5171Z" fill="#52FFD4"/>
<path d="M527 81.5171C527 35.8964 491.082 0 446.821 0C411.081 0 380.848 24.6524 370.491 57.9621C360.126 24.6568 329.893 0.857891 294.153 0.857891C249.884 0.857891 214 35.731 214 81.3691C214 104.397 223.164 120.667 237.914 138.077L370.565 275L503.065 138.077C517.827 120.667 527 104.528 527 81.5171Z" fill="#52FFD4"/>
<path d="M841 81.5171C841 35.8964 805.082 0 760.821 0C725.081 0 694.848 24.6524 684.491 57.9621C674.126 24.6568 643.893 0.857891 608.153 0.857891C563.884 0.857891 528 35.731 528 81.3691C528 104.397 537.164 120.667 551.914 138.077L684.565 275L817.065 138.077C831.827 120.667 841 104.528 841 81.5171Z" fill="#52FFD4"/>
<path d="M1155 81.5171C1155 35.8964 1119.08 0 1074.82 0C1039.08 0 1008.85 24.6524 998.491 57.9621C988.126 24.6568 957.893 0.857891 922.153 0.857891C877.884 0.857891 842 35.731 842 81.3691C842 104.397 851.164 120.667 865.914 138.077L998.565 275L1131.06 138.077C1145.83 120.667 1155 104.528 1155 81.5171Z" fill="#52FFD4"/>
<path d="M1469 81.5171C1469 35.8964 1433.08 0 1388.82 0C1353.08 0 1322.85 24.6524 1312.49 57.9621C1302.13 24.6568 1271.89 0.857891 1236.15 0.857891C1191.88 0.857891 1156 35.731 1156 81.3691C1156 104.397 1165.16 120.667 1179.91 138.077L1312.57 275L1445.06 138.077C1459.83 120.667 1469 104.528 1469 81.5171Z" fill="#52FFD4"/>
<path d="M1783 81.5171C1783 35.8964 1747.08 0 1702.82 0C1667.08 0 1636.85 24.6524 1626.49 57.9621C1616.13 24.6568 1585.89 0.857891 1550.15 0.857891C1505.88 0.857891 1470 35.731 1470 81.3691C1470 104.397 1479.16 120.667 1493.91 138.077L1626.57 275L1759.06 138.077C1773.83 120.667 1783 104.528 1783 81.5171Z" fill="#52FFD4"/>
<path d="M213 483.483C213 529.104 177.082 565 132.821 565C97.081 565 66.8475 540.348 56.4913 507.038C46.1264 540.343 15.8929 564.142 -19.8471 564.142C-64.1165 564.142 -100 529.269 -100 483.631C-100 460.603 -90.8356 444.333 -76.0864 426.923L56.5653 290L189.065 426.923C203.827 444.333 213 460.472 213 483.483Z" fill="#52FFD4"/>
<path d="M527 483.483C527 529.104 491.082 565 446.821 565C411.081 565 380.848 540.348 370.491 507.038C360.126 540.343 329.893 564.142 294.153 564.142C249.884 564.142 214 529.269 214 483.631C214 460.603 223.164 444.333 237.914 426.923L370.565 290L503.065 426.923C517.827 444.333 527 460.472 527 483.483Z" fill="#52FFD4"/>
<path d="M841 483.483C841 529.104 805.082 565 760.821 565C725.081 565 694.848 540.348 684.491 507.038C674.126 540.343 643.893 564.142 608.153 564.142C563.884 564.142 528 529.269 528 483.631C528 460.603 537.164 444.333 551.914 426.923L684.565 290L817.065 426.923C831.827 444.333 841 460.472 841 483.483Z" fill="#52FFD4"/>
<path d="M1155 483.483C1155 529.104 1119.08 565 1074.82 565C1039.08 565 1008.85 540.348 998.491 507.038C988.126 540.343 957.893 564.142 922.153 564.142C877.884 564.142 842 529.269 842 483.631C842 460.603 851.164 444.333 865.914 426.923L998.565 290L1131.06 426.923C1145.83 444.333 1155 460.472 1155 483.483Z" fill="#52FFD4"/>
<path d="M1469 483.483C1469 529.104 1433.08 565 1388.82 565C1353.08 565 1322.85 540.348 1312.49 507.038C1302.13 540.343 1271.89 564.142 1236.15 564.142C1191.88 564.142 1156 529.269 1156 483.631C1156 460.603 1165.16 444.333 1179.91 426.923L1312.57 290L1445.06 426.923C1459.83 444.333 1469 460.472 1469 483.483Z" fill="#52FFD4"/>
<path d="M1783 483.483C1783 529.104 1747.08 565 1702.82 565C1667.08 565 1636.85 540.348 1626.49 507.038C1616.13 540.343 1585.89 564.142 1550.15 564.142C1505.88 564.142 1470 529.269 1470 483.631C1470 460.603 1479.16 444.333 1493.91 426.923L1626.57 290L1759.06 426.923C1773.83 444.333 1783 460.472 1783 483.483Z" fill="#52FFD4"/>
</mask>
<g mask="url(#mask0_992_209)">
<path d="M107 73.5171C107 27.8964 71.0817 -8 26.821 -8C-8.91899 -8 -39.1525 16.6524 -49.5087 49.9621C-59.8736 16.6568 -90.1071 -7.14211 -125.847 -7.14211C-170.116 -7.14211 -206 27.731 -206 73.3691C-206 96.3971 -196.836 112.667 -182.086 130.077L-49.4347 267L83.0646 130.077C97.8269 112.667 107 96.5278 107 73.5171Z" fill="#F97AFF"/>
<path d="M421 73.5171C421 27.8964 385.082 -8 340.821 -8C305.081 -8 274.848 16.6524 264.491 49.9621C254.126 16.6568 223.893 -7.14211 188.153 -7.14211C143.884 -7.14211 108 27.731 108 73.3691C108 96.3971 117.164 112.667 131.914 130.077L264.565 267L397.065 130.077C411.827 112.667 421 96.5278 421 73.5171Z" fill="#F97AFF"/>
<path d="M735 73.5171C735 27.8964 699.082 -8 654.821 -8C619.081 -8 588.848 16.6524 578.491 49.9621C568.126 16.6568 537.893 -7.14211 502.153 -7.14211C457.884 -7.14211 422 27.731 422 73.3691C422 96.3971 431.164 112.667 445.914 130.077L578.565 267L711.065 130.077C725.827 112.667 735 96.5278 735 73.5171Z" fill="#F97AFF"/>
<path d="M1049 73.5171C1049 27.8964 1013.08 -8 968.821 -8C933.081 -8 902.848 16.6524 892.491 49.9621C882.126 16.6568 851.893 -7.14211 816.153 -7.14211C771.884 -7.14211 736 27.731 736 73.3691C736 96.3971 745.164 112.667 759.914 130.077L892.565 267L1025.06 130.077C1039.83 112.667 1049 96.5278 1049 73.5171Z" fill="#F97AFF"/>
<path d="M1363 73.5171C1363 27.8964 1327.08 -8 1282.82 -8C1247.08 -8 1216.85 16.6524 1206.49 49.9621C1196.13 16.6568 1165.89 -7.14211 1130.15 -7.14211C1085.88 -7.14211 1050 27.731 1050 73.3691C1050 96.3971 1059.16 112.667 1073.91 130.077L1206.57 267L1339.06 130.077C1353.83 112.667 1363 96.5278 1363 73.5171Z" fill="#F97AFF"/>
<path d="M1677 73.5171C1677 27.8964 1641.08 -8 1596.82 -8C1561.08 -8 1530.85 16.6524 1520.49 49.9621C1510.13 16.6568 1479.89 -7.14211 1444.15 -7.14211C1399.88 -7.14211 1364 27.731 1364 73.3691C1364 96.3971 1373.16 112.667 1387.91 130.077L1520.57 267L1653.06 130.077C1667.83 112.667 1677 96.5278 1677 73.5171Z" fill="#F97AFF"/>
</g>
<mask id="mask1_992_209" style="mask-type:alpha" maskUnits="userSpaceOnUse" x="-100" y="0" width="1883" height="565">
<path d="M213 81.5171C213 35.8964 177.082 0 132.821 0C97.081 0 66.8475 24.6524 56.4913 57.9621C46.1264 24.6568 15.8929 0.857891 -19.8471 0.857891C-64.1165 0.857891 -100 35.731 -100 81.3691C-100 104.397 -90.8356 120.667 -76.0864 138.077L56.5653 275L189.065 138.077C203.827 120.667 213 104.528 213 81.5171Z" fill="#52FFD4"/>
<path d="M527 81.5171C527 35.8964 491.082 0 446.821 0C411.081 0 380.848 24.6524 370.491 57.9621C360.126 24.6568 329.893 0.857891 294.153 0.857891C249.884 0.857891 214 35.731 214 81.3691C214 104.397 223.164 120.667 237.914 138.077L370.565 275L503.065 138.077C517.827 120.667 527 104.528 527 81.5171Z" fill="#52FFD4"/>
<path d="M841 81.5171C841 35.8964 805.082 0 760.821 0C725.081 0 694.848 24.6524 684.491 57.9621C674.126 24.6568 643.893 0.857891 608.153 0.857891C563.884 0.857891 528 35.731 528 81.3691C528 104.397 537.164 120.667 551.914 138.077L684.565 275L817.065 138.077C831.827 120.667 841 104.528 841 81.5171Z" fill="#52FFD4"/>
<path d="M1155 81.5171C1155 35.8964 1119.08 0 1074.82 0C1039.08 0 1008.85 24.6524 998.491 57.9621C988.126 24.6568 957.893 0.857891 922.153 0.857891C877.884 0.857891 842 35.731 842 81.3691C842 104.397 851.164 120.667 865.914 138.077L998.565 275L1131.06 138.077C1145.83 120.667 1155 104.528 1155 81.5171Z" fill="#52FFD4"/>
<path d="M1469 81.5171C1469 35.8964 1433.08 0 1388.82 0C1353.08 0 1322.85 24.6524 1312.49 57.9621C1302.13 24.6568 1271.89 0.857891 1236.15 0.857891C1191.88 0.857891 1156 35.731 1156 81.3691C1156 104.397 1165.16 120.667 1179.91 138.077L1312.57 275L1445.06 138.077C1459.83 120.667 1469 104.528 1469 81.5171Z" fill="#52FFD4"/>
<path d="M1783 81.5171C1783 35.8964 1747.08 0 1702.82 0C1667.08 0 1636.85 24.6524 1626.49 57.9621C1616.13 24.6568 1585.89 0.857891 1550.15 0.857891C1505.88 0.857891 1470 35.731 1470 81.3691C1470 104.397 1479.16 120.667 1493.91 138.077L1626.57 275L1759.06 138.077C1773.83 120.667 1783 104.528 1783 81.5171Z" fill="#52FFD4"/>
<path d="M213 483.483C213 529.104 177.082 565 132.821 565C97.081 565 66.8475 540.348 56.4913 507.038C46.1264 540.343 15.8929 564.142 -19.8471 564.142C-64.1165 564.142 -100 529.269 -100 483.631C-100 460.603 -90.8356 444.333 -76.0864 426.923L56.5653 290L189.065 426.923C203.827 444.333 213 460.472 213 483.483Z" fill="#52FFD4"/>
<path d="M527 483.483C527 529.104 491.082 565 446.821 565C411.081 565 380.848 540.348 370.491 507.038C360.126 540.343 329.893 564.142 294.153 564.142C249.884 564.142 214 529.269 214 483.631C214 460.603 223.164 444.333 237.914 426.923L370.565 290L503.065 426.923C517.827 444.333 527 460.472 527 483.483Z" fill="#52FFD4"/>
<path d="M841 483.483C841 529.104 805.082 565 760.821 565C725.081 565 694.848 540.348 684.491 507.038C674.126 540.343 643.893 564.142 608.153 564.142C563.884 564.142 528 529.269 528 483.631C528 460.603 537.164 444.333 551.914 426.923L684.565 290L817.065 426.923C831.827 444.333 841 460.472 841 483.483Z" fill="#52FFD4"/>
<path d="M1155 483.483C1155 529.104 1119.08 565 1074.82 565C1039.08 565 1008.85 540.348 998.491 507.038C988.126 540.343 957.893 564.142 922.153 564.142C877.884 564.142 842 529.269 842 483.631C842 460.603 851.164 444.333 865.914 426.923L998.565 290L1131.06 426.923C1145.83 444.333 1155 460.472 1155 483.483Z" fill="#52FFD4"/>
<path d="M1469 483.483C1469 529.104 1433.08 565 1388.82 565C1353.08 565 1322.85 540.348 1312.49 507.038C1302.13 540.343 1271.89 564.142 1236.15 564.142C1191.88 564.142 1156 529.269 1156 483.631C1156 460.603 1165.16 444.333 1179.91 426.923L1312.57 290L1445.06 426.923C1459.83 444.333 1469 460.472 1469 483.483Z" fill="#52FFD4"/>
<path d="M1783 483.483C1783 529.104 1747.08 565 1702.82 565C1667.08 565 1636.85 540.348 1626.49 507.038C1616.13 540.343 1585.89 564.142 1550.15 564.142C1505.88 564.142 1470 529.269 1470 483.631C1470 460.603 1479.16 444.333 1493.91 426.923L1626.57 290L1759.06 426.923C1773.83 444.333 1783 460.472 1783 483.483Z" fill="#52FFD4"/>
</mask>
<g mask="url(#mask1_992_209)">
<path d="M279 159.517C279 113.896 243.082 78 198.821 78C163.081 78 132.848 102.652 122.491 135.962C112.126 102.657 81.8929 78.8579 46.1529 78.8579C1.88352 78.8579 -34 113.731 -34 159.369C-34 182.397 -24.8356 198.667 -10.0864 216.077L122.565 353L255.065 216.077C269.827 198.667 279 182.528 279 159.517Z" fill="#F9621D"/>
<path d="M593 159.517C593 113.896 557.082 78 512.821 78C477.081 78 446.848 102.652 436.491 135.962C426.126 102.657 395.893 78.8579 360.153 78.8579C315.884 78.8579 280 113.731 280 159.369C280 182.397 289.164 198.667 303.914 216.077L436.565 353L569.065 216.077C583.827 198.667 593 182.528 593 159.517Z" fill="#F9621D"/>
<path d="M907 159.517C907 113.896 871.082 78 826.821 78C791.081 78 760.848 102.652 750.491 135.962C740.126 102.657 709.893 78.8579 674.153 78.8579C629.884 78.8579 594 113.731 594 159.369C594 182.397 603.164 198.667 617.914 216.077L750.565 353L883.065 216.077C897.827 198.667 907 182.528 907 159.517Z" fill="#F9621D"/>
<path d="M1221 159.517C1221 113.896 1185.08 78 1140.82 78C1105.08 78 1074.85 102.652 1064.49 135.962C1054.13 102.657 1023.89 78.8579 988.153 78.8579C943.884 78.8579 908 113.731 908 159.369C908 182.397 917.164 198.667 931.914 216.077L1064.57 353L1197.06 216.077C1211.83 198.667 1221 182.528 1221 159.517Z" fill="#F9621D"/>
<path d="M1535 159.517C1535 113.896 1499.08 78 1454.82 78C1419.08 78 1388.85 102.652 1378.49 135.962C1368.13 102.657 1337.89 78.8579 1302.15 78.8579C1257.88 78.8579 1222 113.731 1222 159.369C1222 182.397 1231.16 198.667 1245.91 216.077L1378.57 353L1511.06 216.077C1525.83 198.667 1535 182.528 1535 159.517Z" fill="#F9621D"/>
<path d="M1849 159.517C1849 113.896 1813.08 78 1768.82 78C1733.08 78 1702.85 102.652 1692.49 135.962C1682.13 102.657 1651.89 78.8579 1616.15 78.8579C1571.88 78.8579 1536 113.731 1536 159.369C1536 182.397 1545.16 198.667 1559.91 216.077L1692.57 353L1825.06 216.077C1839.83 198.667 1849 182.528 1849 159.517Z" fill="#F9621D"/>
</g>
</svg>
