<svg width="32" height="31" viewBox="0 0 32 31" fill="none" xmlns="http://www.w3.org/2000/svg">
<path d="M8.62599 0C3.86272 0 0 3.82496 0 8.54167V22.2083C0 26.925 3.86272 30.75 8.62599 30.75H22.4276C27.1909 30.75 31.0536 26.925 31.0536 22.2083V8.54167C31.0536 3.82496 27.1909 0 22.4276 0H8.62599ZM25.878 3.41667C26.8303 3.41667 27.6032 4.182 27.6032 5.125C27.6032 6.068 26.8303 6.83333 25.878 6.83333C24.9257 6.83333 24.1528 6.068 24.1528 5.125C24.1528 4.182 24.9257 3.41667 25.878 3.41667ZM15.5268 6.83333C20.2901 6.83333 24.1528 10.6583 24.1528 15.375C24.1528 20.0917 20.2901 23.9167 15.5268 23.9167C10.7635 23.9167 6.90079 20.0917 6.90079 15.375C6.90079 10.6583 10.7635 6.83333 15.5268 6.83333ZM15.5268 10.25C14.1541 10.25 12.8377 10.79 11.8671 11.7511C10.8965 12.7122 10.3512 14.0158 10.3512 15.375C10.3512 16.7342 10.8965 18.0378 11.8671 18.9989C12.8377 19.96 14.1541 20.5 15.5268 20.5C16.8994 20.5 18.2159 19.96 19.1865 18.9989C20.1571 18.0378 20.7024 16.7342 20.7024 15.375C20.7024 14.0158 20.1571 12.7122 19.1865 11.7511C18.2159 10.79 16.8994 10.25 15.5268 10.25Z" fill="white"/>
</svg>
