<svg width="2185" height="516" viewBox="0 0 2185 516" fill="none" xmlns="http://www.w3.org/2000/svg">
<path d="M163 0.5H1891V294L163 88.5V0.5Z" fill="#BAFE83"/>
<rect x="8.47656" y="46.5" width="2192.15" height="70.1737" transform="rotate(6.92864 8.47656 46.5)" fill="#7636FF"/>
<path d="M157.154 111.703C154.473 111.384 152.142 110.412 150.434 108.516L153.117 105.271C153.944 106.185 155.282 107.13 157.188 107.357C159.542 107.637 161.243 106.541 161.52 104.217L162.989 91.8843L168.083 92.491L166.621 104.764C165.975 110.186 162.069 112.289 157.154 111.703ZM181.687 114.625C174.359 113.752 169.454 109.271 170.221 102.836C170.987 96.4019 176.807 93.1976 184.135 94.0704C191.463 94.9431 196.368 99.4246 195.601 105.859C194.835 112.294 189.015 115.498 181.687 114.625ZM175.434 103.457C174.983 107.241 177.645 110.005 182.173 110.544C186.701 111.083 189.938 109.021 190.388 105.238C190.835 101.485 188.177 98.6908 183.649 98.1515C179.121 97.6123 175.881 99.7038 175.434 103.457ZM197.748 116.175L200.115 96.3058L205.179 96.9089L202.813 116.779L197.748 116.175ZM207.203 117.301L209.569 97.4318L214.812 98.0562L225.276 112.686L226.847 99.4895L231.941 100.096L229.575 119.966L224.66 119.38L213.885 104.321L212.267 117.905L207.203 117.301ZM249.479 122.336L251.331 106.786L243.615 105.867L244.13 101.548L264.625 103.989L264.11 108.308L256.425 107.393L254.573 122.943L249.479 122.336ZM265.415 124.234L267.781 104.365L272.845 104.968L271.951 112.475L284.105 113.922L284.999 106.415L290.064 107.018L287.697 126.888L282.633 126.285L283.594 118.212L271.44 116.764L270.479 124.837L265.415 124.234ZM292.062 127.408L294.429 107.538L313.851 109.851L313.372 113.873L299.014 112.163L298.556 116.006L312.408 117.655L311.951 121.498L298.099 119.849L297.605 123.989L311.964 125.699L311.485 129.721L292.062 127.408ZM344.554 133.659L341.391 119.627L334.991 132.52L329.391 131.853L324.25 111.09L329.761 111.746L332.918 126.594L339.651 112.924L344.626 113.516L347.961 128.385L354.516 114.694L359.998 115.347L350.184 134.33L344.554 133.659ZM355.571 134.971L367.529 116.244L373.517 116.957L380.743 137.969L375.083 137.295L373.965 133.748L363.151 132.46L361.231 135.645L355.571 134.971ZM365.34 128.793L372.698 129.67L370.013 121.011L365.34 128.793ZM382.74 138.207L385.106 118.337L390.17 118.941L387.804 138.81L382.74 138.207ZM398.659 140.103L400.511 124.553L392.795 123.634L393.31 119.314L413.805 121.755L413.29 126.075L405.605 125.159L403.753 140.71L398.659 140.103ZM414.595 142.001L416.961 122.131L422.025 122.734L420.17 138.314L432.354 139.765L431.843 144.055L414.595 142.001ZM434.988 144.43L437.354 124.56L442.418 125.163L440.052 145.033L434.988 144.43ZM454.141 147.073C449.375 146.505 445.238 144.2 443.373 142.105L446.246 139.033C448.014 140.935 451.187 142.703 454.672 143.118C457.979 143.512 459.657 142.866 459.806 141.615C459.991 140.066 457.971 139.523 454.439 138.74C449.699 137.692 444.764 136.258 445.335 131.462C445.786 127.679 449.946 125.727 456.142 126.465C460.104 126.937 463.663 128.509 465.884 130.918L463.051 133.904C461.322 132.188 458.567 130.712 455.29 130.321C452.46 129.984 450.893 130.462 450.758 131.594C450.588 133.024 452.366 133.568 456.182 134.506C460.877 135.67 465.723 137.093 465.176 141.68C464.726 145.464 460.635 147.847 454.141 147.073ZM473.889 149.062L475.741 133.512L468.025 132.593L468.54 128.274L489.035 130.715L488.521 135.034L480.835 134.119L478.983 149.669L473.889 149.062Z" fill="white"/>
<path d="M581.146 164.984C578.465 164.664 576.134 163.692 574.426 161.797L577.109 158.551C577.936 159.465 579.274 160.41 581.181 160.637C583.534 160.917 585.236 159.821 585.512 157.497L586.981 145.165L592.075 145.771L590.613 158.045C589.968 163.466 586.062 165.569 581.146 164.984ZM605.679 167.905C598.351 167.033 593.446 162.551 594.213 156.117C594.979 149.682 600.799 146.478 608.127 147.351C615.455 148.223 620.36 152.705 619.593 159.139C618.827 165.574 613.007 168.778 605.679 167.905ZM599.426 156.738C598.975 160.521 601.637 163.285 606.165 163.824C610.693 164.363 613.93 162.302 614.38 158.519C614.827 154.765 612.169 151.971 607.641 151.432C603.113 150.893 599.873 152.984 599.426 156.738ZM621.741 169.456L624.107 149.586L629.171 150.189L626.805 170.059L621.741 169.456ZM631.195 170.582L633.562 150.712L638.805 151.337L649.268 165.967L650.839 152.77L655.933 153.376L653.567 173.246L648.652 172.661L637.877 157.601L636.259 171.185L631.195 170.582ZM673.471 175.617L675.323 160.066L667.607 159.148L668.122 154.828L688.617 157.269L688.103 161.588L680.417 160.673L678.565 176.223L673.471 175.617ZM689.407 177.514L691.773 157.645L696.837 158.248L695.943 165.755L708.098 167.202L708.992 159.695L714.056 160.299L711.689 180.168L706.625 179.565L707.587 171.492L695.433 170.045L694.471 178.118L689.407 177.514ZM716.054 180.688L718.421 160.818L737.844 163.132L737.365 167.153L723.006 165.443L722.548 169.286L736.401 170.936L735.943 174.779L722.091 173.129L721.598 177.27L735.956 178.98L735.477 183.001L716.054 180.688ZM768.546 186.94L765.383 172.907L758.983 185.801L753.383 185.134L748.242 164.37L753.754 165.026L756.91 179.874L763.644 166.204L768.618 166.797L771.953 181.665L778.509 167.975L783.99 168.627L774.176 187.61L768.546 186.94ZM779.563 188.252L791.522 169.524L797.509 170.238L804.735 191.249L799.075 190.575L797.957 187.028L787.143 185.74L785.223 188.926L779.563 188.252ZM789.332 182.074L796.69 182.95L794.005 174.292L789.332 182.074ZM806.732 191.487L809.098 171.618L814.163 172.221L811.796 192.09L806.732 191.487ZM822.651 193.383L824.503 177.833L816.787 176.914L817.302 172.595L837.797 175.036L837.283 179.355L829.597 178.44L827.745 193.99L822.651 193.383ZM838.587 195.281L840.953 175.412L846.018 176.015L844.162 191.595L856.346 193.046L855.835 197.335L838.587 195.281ZM858.98 197.71L861.346 177.84L866.411 178.443L864.044 198.313L858.98 197.71ZM878.133 200.353C873.367 199.786 869.231 197.48 867.365 195.385L870.239 192.313C872.006 194.216 875.179 195.983 878.665 196.399C881.971 196.792 883.649 196.146 883.798 194.895C883.983 193.346 881.963 192.803 878.431 192.02C873.691 190.972 868.756 189.539 869.328 184.743C869.778 180.959 873.938 179.008 880.134 179.745C884.096 180.217 887.655 181.789 889.876 184.199L887.043 187.185C885.314 185.468 882.559 183.992 879.282 183.602C876.452 183.265 874.885 183.743 874.75 184.875C874.58 186.305 876.358 186.849 880.174 187.787C884.869 188.95 889.715 190.373 889.168 194.961C888.718 198.744 884.627 201.127 878.133 200.353ZM897.881 202.343L899.733 186.793L892.018 185.874L892.532 181.554L913.027 183.995L912.513 188.315L904.827 187.399L902.975 202.949L897.881 202.343Z" fill="white"/>
<path d="M988.146 214.984C985.465 214.664 983.134 213.692 981.426 211.797L984.109 208.551C984.936 209.465 986.274 210.41 988.181 210.637C990.534 210.917 992.236 209.821 992.512 207.497L993.981 195.165L999.075 195.771L997.613 208.045C996.968 213.466 993.062 215.569 988.146 214.984ZM1012.68 217.905C1005.35 217.033 1000.45 212.551 1001.21 206.117C1001.98 199.682 1007.8 196.478 1015.13 197.351C1022.46 198.223 1027.36 202.705 1026.59 209.139C1025.83 215.574 1020.01 218.778 1012.68 217.905ZM1006.43 206.738C1005.98 210.521 1008.64 213.285 1013.17 213.824C1017.69 214.363 1020.93 212.302 1021.38 208.519C1021.83 204.765 1019.17 201.971 1014.64 201.432C1010.11 200.893 1006.87 202.984 1006.43 206.738ZM1028.74 219.456L1031.11 199.586L1036.17 200.189L1033.8 220.059L1028.74 219.456ZM1038.2 220.582L1040.56 200.712L1045.8 201.337L1056.27 215.967L1057.84 202.77L1062.93 203.376L1060.57 223.246L1055.65 222.661L1044.88 207.601L1043.26 221.185L1038.2 220.582ZM1080.47 225.617L1082.32 210.066L1074.61 209.148L1075.12 204.828L1095.62 207.269L1095.1 211.588L1087.42 210.673L1085.56 226.223L1080.47 225.617ZM1096.41 227.514L1098.77 207.645L1103.84 208.248L1102.94 215.755L1115.1 217.202L1115.99 209.695L1121.06 210.299L1118.69 230.168L1113.63 229.565L1114.59 221.492L1102.43 220.045L1101.47 228.118L1096.41 227.514ZM1123.05 230.688L1125.42 210.818L1144.84 213.132L1144.36 217.153L1130.01 215.443L1129.55 219.286L1143.4 220.936L1142.94 224.779L1129.09 223.129L1128.6 227.27L1142.96 228.98L1142.48 233.001L1123.05 230.688ZM1175.55 236.94L1172.38 222.907L1165.98 235.801L1160.38 235.134L1155.24 214.37L1160.75 215.026L1163.91 229.874L1170.64 216.204L1175.62 216.797L1178.95 231.665L1185.51 217.975L1190.99 218.627L1181.18 237.61L1175.55 236.94ZM1186.56 238.252L1198.52 219.524L1204.51 220.238L1211.74 241.249L1206.08 240.575L1204.96 237.028L1194.14 235.74L1192.22 238.926L1186.56 238.252ZM1196.33 232.074L1203.69 232.95L1201.01 224.292L1196.33 232.074ZM1213.73 241.487L1216.1 221.618L1221.16 222.221L1218.8 242.09L1213.73 241.487ZM1229.65 243.383L1231.5 227.833L1223.79 226.914L1224.3 222.595L1244.8 225.036L1244.28 229.355L1236.6 228.44L1234.75 243.99L1229.65 243.383ZM1245.59 245.281L1247.95 225.412L1253.02 226.015L1251.16 241.595L1263.35 243.046L1262.84 247.335L1245.59 245.281ZM1265.98 247.71L1268.35 227.84L1273.41 228.443L1271.04 248.313L1265.98 247.71ZM1285.13 250.353C1280.37 249.786 1276.23 247.48 1274.37 245.385L1277.24 242.313C1279.01 244.216 1282.18 245.983 1285.66 246.399C1288.97 246.792 1290.65 246.146 1290.8 244.895C1290.98 243.346 1288.96 242.803 1285.43 242.02C1280.69 240.972 1275.76 239.539 1276.33 234.743C1276.78 230.959 1280.94 229.008 1287.13 229.745C1291.1 230.217 1294.66 231.789 1296.88 234.199L1294.04 237.185C1292.31 235.468 1289.56 233.992 1286.28 233.602C1283.45 233.265 1281.88 233.743 1281.75 234.875C1281.58 236.305 1283.36 236.849 1287.17 237.787C1291.87 238.95 1296.71 240.373 1296.17 244.961C1295.72 248.744 1291.63 251.127 1285.13 250.353ZM1304.88 252.343L1306.73 236.793L1299.02 235.874L1299.53 231.554L1320.03 233.995L1319.51 238.315L1311.83 237.399L1309.98 252.949L1304.88 252.343Z" fill="white"/>
<path d="M1431.15 269.984C1428.47 269.664 1426.13 268.692 1424.43 266.797L1427.11 263.551C1427.94 264.465 1429.27 265.41 1431.18 265.637C1433.53 265.917 1435.24 264.821 1435.51 262.497L1436.98 250.165L1442.08 250.771L1440.61 263.045C1439.97 268.466 1436.06 270.569 1431.15 269.984ZM1455.68 272.905C1448.35 272.033 1443.45 267.551 1444.21 261.117C1444.98 254.682 1450.8 251.478 1458.13 252.351C1465.46 253.223 1470.36 257.705 1469.59 264.139C1468.83 270.574 1463.01 273.778 1455.68 272.905ZM1449.43 261.738C1448.98 265.521 1451.64 268.285 1456.17 268.824C1460.69 269.363 1463.93 267.302 1464.38 263.519C1464.83 259.765 1462.17 256.971 1457.64 256.432C1453.11 255.893 1449.87 257.984 1449.43 261.738ZM1471.74 274.456L1474.11 254.586L1479.17 255.189L1476.8 275.059L1471.74 274.456ZM1481.2 275.582L1483.56 255.712L1488.8 256.337L1499.27 270.967L1500.84 257.77L1505.93 258.376L1503.57 278.246L1498.65 277.661L1487.88 262.601L1486.26 276.185L1481.2 275.582ZM1523.47 280.617L1525.32 265.066L1517.61 264.148L1518.12 259.828L1538.62 262.269L1538.1 266.588L1530.42 265.673L1528.56 281.223L1523.47 280.617ZM1539.41 282.514L1541.77 262.645L1546.84 263.248L1545.94 270.755L1558.1 272.202L1558.99 264.695L1564.06 265.299L1561.69 285.168L1556.63 284.565L1557.59 276.492L1545.43 275.045L1544.47 283.118L1539.41 282.514ZM1566.05 285.688L1568.42 265.818L1587.84 268.132L1587.36 272.153L1573.01 270.443L1572.55 274.286L1586.4 275.936L1585.94 279.779L1572.09 278.129L1571.6 282.27L1585.96 283.98L1585.48 288.001L1566.05 285.688ZM1618.55 291.94L1615.38 277.907L1608.98 290.801L1603.38 290.134L1598.24 269.37L1603.75 270.026L1606.91 284.874L1613.64 271.204L1618.62 271.797L1621.95 286.665L1628.51 272.975L1633.99 273.627L1624.18 292.61L1618.55 291.94ZM1629.56 293.252L1641.52 274.524L1647.51 275.238L1654.74 296.249L1649.08 295.575L1647.96 292.028L1637.14 290.74L1635.22 293.926L1629.56 293.252ZM1639.33 287.074L1646.69 287.95L1644.01 279.292L1639.33 287.074ZM1656.73 296.487L1659.1 276.618L1664.16 277.221L1661.8 297.09L1656.73 296.487ZM1672.65 298.383L1674.5 282.833L1666.79 281.914L1667.3 277.595L1687.8 280.036L1687.28 284.355L1679.6 283.44L1677.75 298.99L1672.65 298.383ZM1688.59 300.281L1690.95 280.412L1696.02 281.015L1694.16 296.595L1706.35 298.046L1705.84 302.335L1688.59 300.281ZM1708.98 302.71L1711.35 282.84L1716.41 283.443L1714.04 303.313L1708.98 302.71ZM1728.13 305.353C1723.37 304.786 1719.23 302.48 1717.37 300.385L1720.24 297.313C1722.01 299.216 1725.18 300.983 1728.66 301.399C1731.97 301.792 1733.65 301.146 1733.8 299.895C1733.98 298.346 1731.96 297.803 1728.43 297.02C1723.69 295.972 1718.76 294.539 1719.33 289.743C1719.78 285.959 1723.94 284.008 1730.13 284.745C1734.1 285.217 1737.66 286.789 1739.88 289.199L1737.04 292.185C1735.31 290.468 1732.56 288.992 1729.28 288.602C1726.45 288.265 1724.88 288.743 1724.75 289.875C1724.58 291.305 1726.36 291.849 1730.17 292.787C1734.87 293.95 1739.71 295.373 1739.17 299.961C1738.72 303.744 1734.63 306.127 1728.13 305.353ZM1747.88 307.343L1749.73 291.793L1742.02 290.874L1742.53 286.554L1763.03 288.995L1762.51 293.315L1754.83 292.399L1752.98 307.949L1747.88 307.343Z" fill="white"/>
<path d="M1850.15 319.984C1847.47 319.664 1845.13 318.692 1843.43 316.797L1846.11 313.551C1846.94 314.465 1848.27 315.41 1850.18 315.637C1852.53 315.917 1854.24 314.821 1854.51 312.497L1855.98 300.165L1861.08 300.771L1859.61 313.045C1858.97 318.466 1855.06 320.569 1850.15 319.984ZM1874.68 322.905C1867.35 322.033 1862.45 317.551 1863.21 311.117C1863.98 304.682 1869.8 301.478 1877.13 302.351C1884.46 303.223 1889.36 307.705 1888.59 314.139C1887.83 320.574 1882.01 323.778 1874.68 322.905ZM1868.43 311.738C1867.98 315.521 1870.64 318.285 1875.17 318.824C1879.69 319.363 1882.93 317.302 1883.38 313.519C1883.83 309.765 1881.17 306.971 1876.64 306.432C1872.11 305.893 1868.87 307.984 1868.43 311.738ZM1890.74 324.456L1893.11 304.586L1898.17 305.189L1895.8 325.059L1890.74 324.456ZM1900.2 325.582L1902.56 305.712L1907.8 306.337L1918.27 320.967L1919.84 307.77L1924.93 308.376L1922.57 328.246L1917.65 327.661L1906.88 312.601L1905.26 326.185L1900.2 325.582ZM1942.47 330.617L1944.32 315.066L1936.61 314.148L1937.12 309.828L1957.62 312.269L1957.1 316.588L1949.42 315.673L1947.56 331.223L1942.47 330.617ZM1958.41 332.514L1960.77 312.645L1965.84 313.248L1964.94 320.755L1977.1 322.202L1977.99 314.695L1983.06 315.299L1980.69 335.168L1975.63 334.565L1976.59 326.492L1964.43 325.045L1963.47 333.118L1958.41 332.514ZM1985.05 335.688L1987.42 315.818L2006.84 318.132L2006.36 322.153L1992.01 320.443L1991.55 324.286L2005.4 325.936L2004.94 329.779L1991.09 328.129L1990.6 332.27L2004.96 333.98L2004.48 338.001L1985.05 335.688ZM2037.55 341.94L2034.38 327.907L2027.98 340.801L2022.38 340.134L2017.24 319.37L2022.75 320.026L2025.91 334.874L2032.64 321.204L2037.62 321.797L2040.95 336.665L2047.51 322.975L2052.99 323.627L2043.18 342.61L2037.55 341.94ZM2048.56 343.252L2060.52 324.524L2066.51 325.238L2073.74 346.249L2068.08 345.575L2066.96 342.028L2056.14 340.74L2054.22 343.926L2048.56 343.252ZM2058.33 337.074L2065.69 337.95L2063.01 329.292L2058.33 337.074ZM2075.73 346.487L2078.1 326.618L2083.16 327.221L2080.8 347.09L2075.73 346.487ZM2091.65 348.383L2093.5 332.833L2085.79 331.914L2086.3 327.595L2106.8 330.036L2106.28 334.355L2098.6 333.44L2096.75 348.99L2091.65 348.383ZM2107.59 350.281L2109.95 330.412L2115.02 331.015L2113.16 346.595L2125.35 348.046L2124.84 352.335L2107.59 350.281ZM2127.98 352.71L2130.35 332.84L2135.41 333.443L2133.04 353.313L2127.98 352.71ZM2147.13 355.353C2142.37 354.786 2138.23 352.48 2136.37 350.385L2139.24 347.313C2141.01 349.216 2144.18 350.983 2147.66 351.399C2150.97 351.792 2152.65 351.146 2152.8 349.895C2152.98 348.346 2150.96 347.803 2147.43 347.02C2142.69 345.972 2137.76 344.539 2138.33 339.743C2138.78 335.959 2142.94 334.008 2149.13 334.745C2153.1 335.217 2156.66 336.789 2158.88 339.199L2156.04 342.185C2154.31 340.468 2151.56 338.992 2148.28 338.602C2145.45 338.265 2143.88 338.743 2143.75 339.875C2143.58 341.305 2145.36 341.849 2149.17 342.787C2153.87 343.95 2158.71 345.373 2158.17 349.961C2157.72 353.744 2153.63 356.127 2147.13 355.353ZM2166.88 357.343L2168.73 341.793L2161.02 340.874L2161.53 336.554L2182.03 338.995L2181.51 343.315L2173.83 342.399L2171.98 357.949L2166.88 357.343Z" fill="white"/>
<path d="M529.611 159.914L529.891 152.144L523.381 156.344L521.001 152.214L527.931 148.714L521.001 145.214L523.381 141.084L529.891 145.284L529.611 137.514H534.231L533.811 145.284L540.461 141.084L542.771 145.214L535.911 148.714L542.771 152.214L540.461 156.344L533.811 152.144L534.231 159.914H529.611Z" fill="white"/>
<path d="M945.611 210.914L945.891 203.144L939.381 207.344L937.001 203.214L943.931 199.714L937.001 196.214L939.381 192.084L945.891 196.284L945.611 188.514H950.231L949.811 196.284L956.461 192.084L958.771 196.214L951.911 199.714L958.771 203.214L956.461 207.344L949.811 203.144L950.231 210.914H945.611Z" fill="white"/>
<path d="M1370.61 261.914L1370.89 254.144L1364.38 258.344L1362 254.214L1368.93 250.714L1362 247.214L1364.38 243.084L1370.89 247.284L1370.61 239.514H1375.23L1374.81 247.284L1381.46 243.084L1383.77 247.214L1376.91 250.714L1383.77 254.214L1381.46 258.344L1374.81 254.144L1375.23 261.914H1370.61Z" fill="white"/>
<path d="M1804.61 315.914L1804.89 308.144L1798.38 312.344L1796 308.214L1802.93 304.714L1796 301.214L1798.38 297.084L1804.89 301.284L1804.61 293.514H1809.23L1808.81 301.284L1815.46 297.084L1817.77 301.214L1810.91 304.714L1817.77 308.214L1815.46 312.344L1808.81 308.144L1809.23 315.914H1804.61Z" fill="white"/>
<rect x="51" y="446.146" width="1972" height="70.1737" transform="rotate(-10.6264 51 446.146)" fill="#F97AFF"/>
<path d="M202.63 466.312C197.924 467.255 193.275 466.351 190.851 464.94L192.626 461.127C194.897 462.385 198.463 463.078 201.905 462.388C205.17 461.733 206.564 460.597 206.316 459.362C206.009 457.832 203.921 457.945 200.32 458.3C195.49 458.778 190.354 458.951 189.405 454.215C188.656 450.48 192.002 447.331 198.12 446.104C202.032 445.32 205.904 445.706 208.764 447.305L207.001 451.025C204.823 449.931 201.746 449.385 198.51 450.034C195.716 450.594 194.375 451.536 194.599 452.654C194.882 454.066 196.741 454.03 200.659 453.734C205.484 453.379 210.532 453.223 211.44 457.753C212.189 461.489 209.043 465.026 202.63 466.312ZM222.017 462.058L218.939 446.704L211.32 448.231L210.465 443.966L230.703 439.909L231.558 444.174L223.969 445.695L227.047 461.05L222.017 462.058ZM233.044 459.848L238.582 438.329L244.494 437.144L257.899 454.865L252.31 455.985L250.144 452.962L239.466 455.103L238.632 458.727L233.044 459.848ZM240.406 450.937L247.671 449.48L242.426 442.087L240.406 450.937ZM264.697 453.502L263.158 445.825L251.116 435.817L257.41 434.555L264.815 440.965L269.059 432.22L275.442 430.94L268.188 444.817L269.727 452.494L264.697 453.502ZM296.703 447.086L293.625 431.732L286.006 433.259L285.151 428.994L305.389 424.937L306.244 429.202L298.655 430.723L301.733 446.078L296.703 447.086ZM323.51 442.079C316.715 443.441 311.79 440.696 310.628 434.901L308.505 424.312L313.506 423.31L315.617 433.84C316.259 437.046 318.943 438.528 322.649 437.785C326.355 437.042 328.261 434.64 327.618 431.434L325.507 420.904L330.507 419.901L332.63 430.491C333.786 436.256 330.305 440.717 323.51 442.079ZM338.751 438.657L334.818 419.037L339.995 417.999L354.49 428.648L351.878 415.617L356.908 414.609L360.841 434.228L355.988 435.201L341.062 424.241L343.751 437.654L338.751 438.657ZM365.178 433.359L361.245 413.739L380.423 409.895L381.219 413.866L367.041 416.708L367.802 420.502L381.48 417.76L382.241 421.555L368.563 424.297L369.382 428.386L383.56 425.543L384.356 429.514L365.178 433.359ZM388.015 428.781L384.082 409.161L394.436 407.086C401.348 405.7 407.273 407.174 408.724 414.41C410.175 421.646 405.252 425.325 398.398 426.699L388.015 428.781ZM392.196 423.69L397.549 422.617C402.432 421.638 404.402 419.254 403.635 415.43C402.845 411.489 400.132 410.166 395.279 411.139L389.896 412.218L392.196 423.69Z" fill="white"/>
<path d="M515.63 406.312C510.924 407.255 506.275 406.351 503.851 404.94L505.626 401.127C507.897 402.385 511.463 403.078 514.905 402.388C518.17 401.733 519.564 400.597 519.316 399.362C519.009 397.832 516.921 397.945 513.32 398.3C508.49 398.778 503.354 398.951 502.405 394.215C501.656 390.48 505.002 387.331 511.12 386.104C515.032 385.32 518.904 385.706 521.764 387.305L520.001 391.025C517.823 389.931 514.746 389.385 511.51 390.034C508.716 390.594 507.375 391.536 507.599 392.654C507.882 394.066 509.741 394.03 513.659 393.734C518.484 393.379 523.532 393.223 524.44 397.753C525.189 401.489 522.043 405.026 515.63 406.312ZM535.017 402.058L531.939 386.704L524.32 388.231L523.465 383.966L543.703 379.909L544.558 384.174L536.969 385.695L540.047 401.05L535.017 402.058ZM546.044 399.848L551.582 378.329L557.494 377.144L570.899 394.865L565.31 395.985L563.144 392.962L552.466 395.103L551.632 398.727L546.044 399.848ZM553.406 390.937L560.671 389.48L555.426 382.087L553.406 390.937ZM577.697 393.502L576.158 385.825L564.116 375.817L570.41 374.555L577.815 380.965L582.059 372.22L588.442 370.94L581.188 384.817L582.727 392.494L577.697 393.502ZM609.703 387.086L606.625 371.732L599.006 373.259L598.151 368.994L618.389 364.937L619.244 369.202L611.655 370.723L614.733 386.078L609.703 387.086ZM636.51 382.079C629.715 383.441 624.79 380.696 623.628 374.901L621.505 364.312L626.506 363.31L628.617 373.84C629.259 377.046 631.943 378.528 635.649 377.785C639.355 377.042 641.261 374.64 640.618 371.434L638.507 360.904L643.507 359.901L645.63 370.491C646.786 376.256 643.305 380.717 636.51 382.079ZM651.751 378.657L647.818 359.037L652.995 357.999L667.49 368.648L664.878 355.617L669.908 354.609L673.841 374.228L668.988 375.201L654.062 364.241L656.751 377.654L651.751 378.657ZM678.178 373.359L674.245 353.739L693.423 349.895L694.219 353.866L680.041 356.708L680.802 360.502L694.48 357.76L695.241 361.555L681.563 364.297L682.382 368.386L696.56 365.543L697.356 369.514L678.178 373.359ZM701.015 368.781L697.082 349.161L707.436 347.086C714.348 345.7 720.273 347.174 721.724 354.41C723.175 361.646 718.252 365.325 711.398 366.699L701.015 368.781ZM705.196 363.69L710.549 362.617C715.432 361.638 717.402 359.254 716.635 355.43C715.845 351.489 713.132 350.166 708.279 351.139L702.896 352.218L705.196 363.69Z" fill="white"/>
<path d="M822.117 346.569C817.394 347.428 812.763 346.441 810.364 344.987L812.207 341.206C814.456 342.505 818.009 343.261 821.462 342.633C824.738 342.037 826.152 340.926 825.927 339.687C825.648 338.152 823.558 338.227 819.951 338.517C815.113 338.909 809.975 338.99 809.111 334.238C808.429 330.489 811.831 327.401 817.97 326.284C821.896 325.57 825.76 326.026 828.591 327.676L826.761 331.363C824.604 330.231 821.537 329.63 818.29 330.22C815.486 330.73 814.128 331.648 814.332 332.77C814.59 334.186 816.449 334.184 820.372 333.958C825.202 333.69 830.252 333.625 831.079 338.17C831.761 341.919 828.551 345.399 822.117 346.569ZM841.577 342.664L838.775 327.257L831.13 328.647L830.352 324.368L850.659 320.674L851.437 324.954L843.822 326.339L846.624 341.746L841.577 342.664ZM852.642 340.652L858.565 319.237L864.498 318.158L877.583 336.116L871.975 337.136L869.863 334.075L859.148 336.023L858.25 339.632L852.642 340.652ZM860.162 331.875L867.453 330.549L862.341 323.063L860.162 331.875ZM884.403 334.876L883.002 327.172L871.142 316.949L877.458 315.801L884.746 322.342L889.146 313.675L895.551 312.51L888.05 326.254L889.451 333.958L884.403 334.876ZM916.519 329.035L913.717 313.628L906.073 315.018L905.294 310.738L925.601 307.045L926.38 311.325L918.765 312.71L921.567 328.117L916.519 329.035ZM943.412 324.51C936.594 325.75 931.719 322.916 930.661 317.102L928.729 306.476L933.746 305.564L935.668 316.13C936.253 319.347 938.91 320.877 942.629 320.2C946.348 319.524 948.296 317.157 947.71 313.94L945.789 303.373L950.806 302.461L952.739 313.087C953.791 318.872 950.231 323.27 943.412 324.51ZM958.712 321.361L955.131 301.674L960.326 300.73L974.629 311.636L972.251 298.561L977.298 297.643L980.878 317.33L976.008 318.216L961.282 306.99L963.73 320.449L958.712 321.361ZM985.23 316.539L981.65 296.852L1000.89 293.352L1001.62 297.336L987.392 299.924L988.084 303.731L1001.81 301.235L1002.5 305.043L988.777 307.539L989.523 311.641L1003.75 309.054L1004.47 313.039L985.23 316.539ZM1008.15 312.371L1004.56 292.684L1014.95 290.794C1021.89 289.533 1027.79 291.113 1029.11 298.374C1030.43 305.635 1025.44 309.225 1018.56 310.476L1008.15 312.371ZM1012.42 307.356L1017.79 306.379C1022.69 305.488 1024.7 303.14 1024 299.303C1023.28 295.348 1020.59 293.977 1015.72 294.862L1010.32 295.845L1012.42 307.356Z" fill="white"/>
<path d="M1127.17 289.641C1122.45 290.5 1117.82 289.512 1115.42 288.058L1117.26 284.277C1119.51 285.576 1123.06 286.332 1126.52 285.704C1129.79 285.109 1131.21 283.998 1130.98 282.758C1130.7 281.223 1128.61 281.298 1125.01 281.588C1120.17 281.98 1115.03 282.061 1114.17 277.309C1113.48 273.56 1116.89 270.472 1123.03 269.355C1126.95 268.641 1130.81 269.097 1133.65 270.747L1131.82 274.434C1129.66 273.302 1126.59 272.701 1123.34 273.292C1120.54 273.802 1119.18 274.719 1119.39 275.841C1119.64 277.258 1121.5 277.255 1125.43 277.029C1130.26 276.761 1135.31 276.696 1136.13 281.242C1136.82 284.99 1133.61 288.47 1127.17 289.641ZM1146.63 285.736L1143.83 270.328L1136.18 271.719L1135.41 267.439L1155.71 263.746L1156.49 268.026L1148.88 269.41L1151.68 284.818L1146.63 285.736ZM1157.7 283.723L1163.62 262.308L1169.55 261.229L1182.64 279.187L1177.03 280.207L1174.92 277.146L1164.2 279.094L1163.3 282.703L1157.7 283.723ZM1165.22 274.946L1172.51 273.62L1167.4 266.134L1165.22 274.946ZM1189.46 277.947L1188.06 270.243L1176.2 260.021L1182.51 258.872L1189.8 265.413L1194.2 256.746L1200.61 255.581L1193.1 269.325L1194.51 277.029L1189.46 277.947ZM1221.57 272.106L1218.77 256.699L1211.13 258.089L1210.35 253.809L1230.66 250.116L1231.43 254.396L1223.82 255.781L1226.62 271.188L1221.57 272.106ZM1248.47 267.581C1241.65 268.821 1236.77 265.988 1235.72 260.173L1233.78 249.547L1238.8 248.635L1240.72 259.202C1241.31 262.419 1243.96 263.948 1247.68 263.272C1251.4 262.595 1253.35 260.229 1252.77 257.011L1250.84 246.445L1255.86 245.532L1257.79 256.158C1258.85 261.943 1255.29 266.341 1248.47 267.581ZM1263.77 264.433L1260.19 244.746L1265.38 243.801L1279.68 254.708L1277.31 241.632L1282.35 240.714L1285.93 260.401L1281.06 261.287L1266.34 250.061L1268.78 263.52L1263.77 264.433ZM1290.28 259.61L1286.7 239.923L1305.95 236.423L1306.67 240.408L1292.45 242.995L1293.14 246.802L1306.86 244.306L1307.56 248.114L1293.83 250.61L1294.58 254.713L1308.8 252.125L1309.53 256.11L1290.28 259.61ZM1313.2 255.442L1309.62 235.755L1320.01 233.866C1326.95 232.604 1332.84 234.184 1334.16 241.445C1335.48 248.706 1330.5 252.297 1323.62 253.547L1313.2 255.442ZM1317.47 250.427L1322.84 249.45C1327.74 248.559 1329.76 246.211 1329.06 242.374C1328.34 238.419 1325.65 237.048 1320.78 237.934L1315.38 238.916L1317.47 250.427Z" fill="white"/>
<path d="M1426.17 234.641C1421.45 235.5 1416.82 234.512 1414.42 233.058L1416.26 229.277C1418.51 230.576 1422.06 231.332 1425.52 230.704C1428.79 230.109 1430.21 228.998 1429.98 227.758C1429.7 226.223 1427.61 226.298 1424.01 226.588C1419.17 226.98 1414.03 227.061 1413.17 222.309C1412.48 218.56 1415.89 215.472 1422.03 214.355C1425.95 213.641 1429.81 214.097 1432.65 215.747L1430.82 219.434C1428.66 218.302 1425.59 217.701 1422.34 218.292C1419.54 218.802 1418.18 219.719 1418.39 220.841C1418.64 222.258 1420.5 222.255 1424.43 222.029C1429.26 221.761 1434.31 221.696 1435.13 226.242C1435.82 229.99 1432.61 233.47 1426.17 234.641ZM1445.63 230.736L1442.83 215.328L1435.18 216.719L1434.41 212.439L1454.71 208.746L1455.49 213.026L1447.88 214.41L1450.68 229.818L1445.63 230.736ZM1456.7 228.723L1462.62 207.308L1468.55 206.229L1481.64 224.187L1476.03 225.207L1473.92 222.146L1463.2 224.094L1462.3 227.703L1456.7 228.723ZM1464.22 219.946L1471.51 218.62L1466.4 211.134L1464.22 219.946ZM1488.46 222.947L1487.06 215.243L1475.2 205.021L1481.51 203.872L1488.8 210.413L1493.2 201.746L1499.61 200.581L1492.1 214.325L1493.51 222.029L1488.46 222.947ZM1520.57 217.106L1517.77 201.699L1510.13 203.089L1509.35 198.809L1529.66 195.116L1530.43 199.396L1522.82 200.781L1525.62 216.188L1520.57 217.106ZM1547.47 212.581C1540.65 213.821 1535.77 210.988 1534.72 205.173L1532.78 194.547L1537.8 193.635L1539.72 204.202C1540.31 207.419 1542.96 208.948 1546.68 208.272C1550.4 207.595 1552.35 205.229 1551.77 202.011L1549.84 191.445L1554.86 190.532L1556.79 201.158C1557.85 206.943 1554.29 211.341 1547.47 212.581ZM1562.77 209.433L1559.19 189.746L1564.38 188.801L1578.68 199.708L1576.31 186.632L1581.35 185.714L1584.93 205.401L1580.06 206.287L1565.34 195.061L1567.78 208.52L1562.77 209.433ZM1589.28 204.61L1585.7 184.923L1604.95 181.423L1605.67 185.408L1591.45 187.995L1592.14 191.802L1605.86 189.306L1606.56 193.114L1592.83 195.61L1593.58 199.713L1607.8 197.125L1608.53 201.11L1589.28 204.61ZM1612.2 200.442L1608.62 180.755L1619.01 178.866C1625.95 177.604 1631.84 179.184 1633.16 186.445C1634.48 193.706 1629.5 197.297 1622.62 198.547L1612.2 200.442ZM1616.47 195.427L1621.84 194.45C1626.74 193.559 1628.76 191.211 1628.06 187.374C1627.34 183.419 1624.65 182.048 1619.78 182.934L1614.38 183.916L1616.47 195.427Z" fill="white"/>
<path d="M1732.17 177.641C1727.45 178.5 1722.82 177.512 1720.42 176.058L1722.26 172.277C1724.51 173.576 1728.06 174.332 1731.52 173.704C1734.79 173.109 1736.21 171.998 1735.98 170.758C1735.7 169.223 1733.61 169.298 1730.01 169.588C1725.17 169.98 1720.03 170.061 1719.17 165.309C1718.48 161.56 1721.89 158.472 1728.03 157.355C1731.95 156.641 1735.81 157.097 1738.65 158.747L1736.82 162.434C1734.66 161.302 1731.59 160.701 1728.34 161.292C1725.54 161.802 1724.18 162.719 1724.39 163.841C1724.64 165.258 1726.5 165.255 1730.43 165.029C1735.26 164.761 1740.31 164.696 1741.13 169.242C1741.82 172.99 1738.61 176.47 1732.17 177.641ZM1751.63 173.736L1748.83 158.328L1741.18 159.719L1740.41 155.439L1760.71 151.746L1761.49 156.026L1753.88 157.41L1756.68 172.818L1751.63 173.736ZM1762.7 171.723L1768.62 150.308L1774.55 149.229L1787.64 167.187L1782.03 168.207L1779.92 165.146L1769.2 167.094L1768.3 170.703L1762.7 171.723ZM1770.22 162.946L1777.51 161.62L1772.4 154.134L1770.22 162.946ZM1794.46 165.947L1793.06 158.243L1781.2 148.021L1787.51 146.872L1794.8 153.413L1799.2 144.746L1805.61 143.581L1798.1 157.325L1799.51 165.029L1794.46 165.947ZM1826.57 160.106L1823.77 144.699L1816.13 146.089L1815.35 141.809L1835.66 138.116L1836.43 142.396L1828.82 143.781L1831.62 159.188L1826.57 160.106ZM1853.47 155.581C1846.65 156.821 1841.77 153.988 1840.72 148.173L1838.78 137.547L1843.8 136.635L1845.72 147.202C1846.31 150.419 1848.96 151.948 1852.68 151.272C1856.4 150.595 1858.35 148.229 1857.77 145.011L1855.84 134.445L1860.86 133.532L1862.79 144.158C1863.85 149.943 1860.29 154.341 1853.47 155.581ZM1868.77 152.433L1865.19 132.746L1870.38 131.801L1884.68 142.708L1882.31 129.632L1887.35 128.714L1890.93 148.401L1886.06 149.287L1871.34 138.061L1873.78 151.52L1868.77 152.433ZM1895.28 147.61L1891.7 127.923L1910.95 124.423L1911.67 128.408L1897.45 130.995L1898.14 134.802L1911.86 132.306L1912.56 136.114L1898.83 138.61L1899.58 142.713L1913.8 140.125L1914.53 144.11L1895.28 147.61ZM1918.2 143.442L1914.62 123.755L1925.01 121.866C1931.95 120.604 1937.84 122.184 1939.16 129.445C1940.48 136.706 1935.5 140.297 1928.62 141.547L1918.2 143.442ZM1922.47 138.427L1927.84 137.45C1932.74 136.559 1934.76 134.211 1934.06 130.374C1933.34 126.419 1930.65 125.048 1925.78 125.934L1920.38 126.916L1922.47 138.427Z" fill="white"/>
<path d="M453.189 418.51L453.469 410.74L446.959 414.94L444.579 410.81L451.509 407.31L444.579 403.81L446.959 399.68L453.469 403.88L453.189 396.11H457.809L457.389 403.88L464.039 399.68L466.349 403.81L459.489 407.31L466.349 410.81L464.039 414.94L457.389 410.74L457.809 418.51H453.189Z" fill="white"/>
<path d="M763.189 360.51L763.469 352.74L756.959 356.94L754.579 352.81L761.509 349.31L754.579 345.81L756.959 341.68L763.469 345.88L763.189 338.11H767.809L767.389 345.88L774.039 341.68L776.349 345.81L769.489 349.31L776.349 352.81L774.039 356.94L767.389 352.74L767.809 360.51H763.189Z" fill="white"/>
<path d="M1070.19 302.51L1070.47 294.74L1063.96 298.94L1061.58 294.81L1068.51 291.31L1061.58 287.81L1063.96 283.68L1070.47 287.88L1070.19 280.11H1074.81L1074.39 287.88L1081.04 283.68L1083.35 287.81L1076.49 291.31L1083.35 294.81L1081.04 298.94L1074.39 294.74L1074.81 302.51H1070.19Z" fill="white"/>
<path d="M1373.19 245.51L1373.47 237.74L1366.96 241.94L1364.58 237.81L1371.51 234.31L1364.58 230.81L1366.96 226.68L1373.47 230.88L1373.19 223.11H1377.81L1377.39 230.88L1384.04 226.68L1386.35 230.81L1379.49 234.31L1386.35 237.81L1384.04 241.94L1377.39 237.74L1377.81 245.51H1373.19Z" fill="white"/>
<path d="M1675.19 189.51L1675.47 181.74L1668.96 185.94L1666.58 181.81L1673.51 178.31L1666.58 174.81L1668.96 170.68L1675.47 174.88L1675.19 167.11H1679.81L1679.39 174.88L1686.04 170.68L1688.35 174.81L1681.49 178.31L1688.35 181.81L1686.04 185.94L1679.39 181.74L1679.81 189.51H1675.19Z" fill="white"/>
</svg>
