<svg width="32" height="31" viewBox="0 0 32 31" fill="none" xmlns="http://www.w3.org/2000/svg">
<path d="M6.12091 0C3.28301 0 0.945312 2.31484 0.945312 5.125V25.625C0.945312 28.4352 3.28301 30.75 6.12091 30.75H26.8233C29.6612 30.75 31.9989 28.4352 31.9989 25.625V5.125C31.9989 2.31484 29.6612 0 26.8233 0H6.12091ZM16.4721 6.83333H19.9225C19.9225 8.55021 22.4603 10.25 23.3729 10.25V13.6667C22.3291 13.6667 21.0749 13.2125 19.9225 12.4455V18.7917C19.9225 21.6173 17.6004 23.9167 14.7469 23.9167C11.8934 23.9167 9.5713 21.6173 9.5713 18.7917C9.5713 15.9661 11.8934 13.6667 14.7469 13.6667V17.0833C13.7946 17.0833 13.0217 17.8504 13.0217 18.7917C13.0217 19.733 13.7946 20.5 14.7469 20.5C15.6992 20.5 16.4721 19.733 16.4721 18.7917V6.83333Z" fill="white"/>
</svg>
