<svg width="773" height="773" viewBox="0 0 773 773" fill="none" xmlns="http://www.w3.org/2000/svg">
<path fill-rule="evenodd" clip-rule="evenodd" d="M671.609 386.504V386.504L672.472 389.363L674.931 392.273L678.809 395.275L683.939 398.407L690.156 401.698L697.291 405.172L705.158 408.845L713.556 412.722L722.261 416.802L731.03 421.07L739.603 425.5L747.71 430.055L755.079 434.688L761.453 439.339L766.597 443.946L770.32 448.441L772.48 452.756L773 456.831L771.867 460.613L769.135 464.063L764.918 467.156L759.384 469.883L752.735 472.25L745.2 474.278L737.018 476L728.426 477.457L719.648 478.699L710.889 479.777L702.33 480.745L694.125 481.657L686.401 482.563L679.262 483.515L672.788 484.557L667.038 485.733L662.056 487.082L657.871 488.641L654.501 490.443L651.954 492.521L650.232 494.904L649.328 497.617L649.231 500.686L649.923 504.132L651.38 507.974L653.569 512.225L656.451 516.895L659.973 521.985L664.069 527.489L668.661 533.389L673.651 539.655L678.922 546.243L684.338 553.09L689.744 560.118L694.966 567.227L699.816 574.302L704.098 581.211L707.616 587.814L710.185 593.962L711.639 599.51L711.845 604.326L710.714 608.295L708.205 611.334L704.335 613.394L699.174 614.463L692.844 614.574L685.509 613.796L677.368 612.232L668.639 610.013L659.546 607.289L650.314 604.223L641.154 600.979L632.258 597.723L623.799 594.614L615.926 591.803L608.768 589.437L602.438 587.653L597.035 586.589L592.65 586.382L589.377 587.183L587.31 589.152L586.422 592.332L586.554 596.632L587.555 601.957L589.287 608.217L591.612 615.312L594.392 623.133L597.483 631.55L600.733 640.417L603.984 649.563L607.071 658.797L609.828 667.908L612.093 676.674L613.714 684.87L614.559 692.276L614.522 698.693L613.531 703.952L611.55 707.928L608.588 710.546L604.69 711.787L599.937 711.684L594.443 710.325L588.337 707.84L581.765 704.391L574.875 700.162L567.808 695.351L560.697 690.152L553.659 684.754L546.794 679.333L540.183 674.045L533.889 669.028L527.958 664.401L522.422 660.262L517.299 656.692L512.595 653.757L508.31 651.511L504.436 649.995L500.959 649.241L497.861 649.274L495.12 650.113L492.712 651.77L490.611 654.251L488.788 657.556L487.211 661.677L485.846 666.596L484.658 672.286L483.607 678.704L482.65 685.793L481.741 693.473L480.832 701.644L479.87 710.18L478.803 718.929L477.576 727.712L476.138 736.327L474.438 744.55L472.436 752.145L470.097 758.873L467.399 764.504L464.335 768.832L460.912 771.687L457.155 772.951L453.102 772.563L448.804 770.531L444.321 766.928L439.721 761.891L435.07 755.608L430.434 748.309L425.87 740.251L421.428 731.705L417.146 722.942L413.051 714.223L409.157 705.792L405.468 697.875L401.979 690.676L398.673 684.379L395.53 679.157L392.518 675.173L389.603 672.595L386.741 671.598L383.883 672.325L380.98 674.664L377.986 678.435L374.866 683.471L371.588 689.608L368.129 696.676L364.473 704.492L360.611 712.855L356.547 721.544L352.293 730.317L347.875 738.916L343.328 747.069L338.699 754.507L334.047 760.968L329.434 766.218L324.928 770.06L320.596 772.348L316.5 773L312.693 771.997L309.215 769.389L306.093 765.286L303.337 759.849L300.942 753.281L298.888 745.808L297.143 737.669L295.666 729.101L294.409 720.33L293.32 711.563L292.345 702.982L291.431 694.744L290.525 686.979L289.579 679.79L288.546 673.261L287.382 667.451L286.048 662.407L284.507 658.158L282.725 654.723L280.67 652.11L278.313 650.322L275.627 649.353L272.587 649.193L269.172 649.823L265.362 651.22L261.144 653.352L256.507 656.181L251.45 659.653L245.979 663.707L240.109 668.263L233.87 673.224L227.306 678.478L220.477 683.888L213.46 689.301L206.354 694.544L199.271 699.43L192.343 703.764L185.71 707.351L179.521 710.001L173.92 711.549L169.041 711.859L165 710.836L161.885 708.437L159.747 704.674L158.599 699.612L158.414 693.369L159.125 686.108L160.63 678.024L162.803 669.333L165.492 660.262L168.537 651.033L171.773 641.86L175.034 632.936L178.161 624.437L181 616.512L183.407 609.294L185.243 602.894L186.37 597.413L186.649 592.944L185.934 589.579L184.064 587.415L180.976 586.439L176.763 586.495L171.515 587.432L165.326 589.11L158.293 591.393L150.526 594.142L142.151 597.214L133.314 600.457L124.183 603.713L114.949 606.819L105.819 609.609L97.0168 611.919L88.7672 613.596L81.2905 614.507L74.7882 614.544L69.4315 613.63L65.3497 611.729L62.6219 608.843L61.2725 605.017L61.2705 600.329L62.5335 594.889L64.9348 588.827L68.314 582.287L72.4874 575.417L77.2601 568.359L82.4354 561.247L87.824 554.2L93.2496 547.318L98.5535 540.685L103.596 534.364L108.258 528.403L112.44 522.834L116.058 517.678L119.045 512.941L121.348 508.623L122.924 504.717L123.74 501.209L123.77 498.081L122.995 495.313L121.404 492.88L118.988 490.755L115.749 488.911L111.693 487.315L106.836 485.935L101.206 484.735L94.8434 483.674L87.8056 482.711L80.1691 481.8L72.0328 480.892L63.5204 479.937L54.7819 478.88L45.9938 477.668L37.3574 476.249L29.0945 474.572L21.4405 472.595L14.6347 470.283L8.908 467.615L4.46945 464.58L1.49185 461.185L0.0987904 457.454L0.354425 453.422L2.25727 449.141L5.73903 444.671L10.6687 440.078L16.8609 435.429L24.0884 430.789L32.0955 426.218L40.6126 421.765L49.3683 417.47L58.1005 413.359L66.5627 409.449L74.5286 405.744L81.7927 402.239L88.168 398.92L93.482 395.764L97.5699 392.744L100.267 389.822L101.397 386.958L100.806 384.102L98.5879 381.203L94.925 378.218L89.9838 375.109L83.9284 371.845L76.9279 368.401L69.1642 364.761L60.8365 360.916L52.1645 356.868L43.3884 352.629L34.7661 348.222L26.567 343.684L19.0625 339.06L12.5142 334.407L7.15998 329.789L3.2 325.272L0.783693 320.924L0 316.807L0.87181 312.975L3.35544 309.47L7.34528 306.32L12.6829 303.535L19.1693 301.111L26.579 299.031L34.6739 297.263L43.2162 295.766L51.9789 294.494L60.7536 293.393L69.3556 292.411L77.6263 291.494L85.4338 290.59L92.6717 289.649L99.2563 288.624L105.125 287.472L110.231 286.153L114.545 284.63L118.046 282.869L120.724 280.837L122.577 278.505L123.611 275.846L123.836 272.835L123.268 269.45L121.931 265.673L119.855 261.487L117.081 256.884L113.657 251.861L109.647 246.422L105.128 240.583L100.194 234.373L94.9594 227.833L89.5562 221.022L84.1374 214.017L78.8741 206.914L73.9521 199.825L69.5663 192.88L65.9135 186.218L63.1819 179.988L61.5407 174.335L61.1286 169.395L62.0428 165.284L64.3316 162.092L67.9881 159.875L72.9505 158.649L79.1047 158.389L86.2916 159.032L94.3183 160.479L102.969 162.603L112.019 165.257L121.243 168.28L130.428 171.507L139.378 174.772L147.918 177.915L155.893 180.782L163.173 183.229L169.642 185.115L175.199 186.303L179.752 186.655L183.209 186.025L185.472 184.252L186.537 181.259L186.557 177.132L185.685 171.963L184.06 165.846L181.821 158.877L179.103 151.164L176.052 142.832L172.817 134.026L169.555 124.912L166.431 115.679L163.611 106.533L161.257 97.6966L159.524 89.3949L158.547 81.8491L158.438 75.2627L159.274 69.8096L161.096 65.6227L163.904 62.7855L167.658 61.3268L172.281 61.2199L177.666 62.3862L183.684 64.7024L190.191 68.0101L197.041 72.1272L204.089 76.8593L211.201 82.0095L218.258 87.3877L225.156 92.8163L231.812 98.1351L238.16 103.203L244.151 107.899L249.752 112.122L254.942 115.788L259.712 118.827L264.063 121.186L268.002 122.822L271.541 123.699L274.698 123.792L277.495 123.082L279.954 121.556L282.102 119.206L283.967 116.033L285.581 112.041L286.977 107.247L288.191 101.678L289.261 95.3718L290.231 88.3854L291.144 80.7935L292.05 72.693L293 64.2056L294.046 55.4792L295.244 46.6882L296.645 38.032L298.3 29.7311L300.252 22.02L302.536 15.1381L305.175 9.31756L308.181 4.76964L311.548 1.67052L315.254 0.148128L319.263 0.271637L323.526 2.0449L327.984 5.40487L332.57 10.2252L337.217 16.3246L341.86 23.4786L346.438 31.4333L350.902 39.9195L355.212 48.6659L359.338 57.409L363.265 65.901L366.986 73.9141L370.507 81.241L373.84 87.6934L377.008 93.0978L380.038 97.2893L382.966 100.103L385.833 101.365L388.688 100.911L391.581 98.8159L394.558 95.2618L397.656 90.4166L400.907 84.4439L404.336 77.5124L407.96 69.8026L411.788 61.5123L415.821 52.8593L420.046 44.0825L424.44 35.4384L428.97 27.1958L433.589 19.6263L438.242 12.9929L442.865 7.53581L447.393 3.45869L451.757 0.915409L455.894 0L459.751 0.7407L463.283 3.09902L466.462 6.97401L469.277 12.211L471.729 18.6138L473.835 25.9584L475.627 34.0074L477.143 42.5224L478.432 51.2752L479.544 60.0559L480.533 68.6776L481.454 76.9797L482.357 84.8282L483.294 92.1145L484.311 98.7536L485.451 104.681L486.755 109.849L488.26 114.227L490.002 117.793L492.011 120.536L494.318 122.455L496.95 123.554L499.932 123.842L503.287 123.337L507.032 122.06L511.185 120.042L515.755 117.322L520.745 113.948L526.151 109.982L531.959 105.5L538.141 100.596L544.657 95.3805L551.449 89.9855L558.442 84.562L565.541 79.2798L572.636 74.3236L579.598 69.8881L586.287 66.1699L592.557 63.3585L598.262 61.6249L603.264 61.1107L607.445 61.9169L610.712 64.0956L613.008 67.6448L614.312 72.5066L614.647 78.571L614.073 85.6822L612.686 93.6495L610.61 102.259L607.993 111.285L604.993 120.503L601.776 129.699L598.509 138.674L595.35 147.252L592.455 155.277L589.97 162.616L588.034 169.153L586.785 174.786L586.361 179.423L586.907 182.97L588.584 185.331L591.482 186.486L595.523 186.584L600.612 185.778L606.657 184.208L613.563 182.012L621.221 179.328L629.509 176.298L638.283 173.072L647.379 169.807L656.611 166.666L665.771 163.815L674.641 161.418L682.993 159.63L690.607 158.589L697.277 158.407L702.826 159.166L707.118 160.909L710.064 163.64L711.633 167.321L711.845 171.878L710.776 177.207L708.546 183.179L705.311 189.652L701.251 196.48L696.56 203.517L691.436 210.629L686.069 217.694L680.639 224.608L675.305 231.286L670.213 237.66L665.483 243.681L661.219 249.313L657.506 254.536L654.414 259.34L651.999 263.724L650.305 267.695L649.367 271.266L649.21 274.453L649.855 277.277L651.316 279.762L653.6 281.933L656.709 283.82L660.636 285.453L665.366 286.865L670.876 288.092L677.125 289.172L684.06 290.148L691.607 291.064L699.671 291.968L708.133 292.913L716.846 293.95L725.64 295.133L734.315 296.517L742.652 298.149L750.419 300.076L757.376 302.332L763.289 304.943L767.946 307.92L771.166 311.258L772.817 314.938L772.826 318.925L771.182 323.17L767.945 327.614L763.235 332.192L757.229 336.837L750.15 341.482L742.249 346.068L733.795 350.542L725.06 354.865L716.307 359.007L707.786 362.95L699.726 366.687L692.338 370.223L685.809 373.571L680.315 376.75L676.021 379.79L673.091 382.725L671.699 385.595L671.609 386.504Z" fill="#127AFF"/>
</svg>
